# 3ds Max Wavefront OBJ Exporter v0.97b - (c)2007 guruware
# File Created: 09.05.2015 10:13:20

#
# object Box003
#

v  70.1996 -1.0000 52.3056
v  70.1996 -1.0000 57.3056
v  -68.5002 -1.0000 57.3056
v  -68.5002 -1.0000 52.3056
v  70.1996 1.0000 57.3056
v  -68.5002 1.0000 57.3056
v  70.1996 1.0000 52.3056
v  -68.5002 1.0000 52.3056
v  -72.5000 -2.5000 80.0000
v  -67.5000 -2.5000 80.0000
v  -67.5000 2.5000 80.0000
v  -72.5000 2.5000 80.0000
v  -72.5000 -2.5000 0.0000
v  -67.5000 -2.5000 0.0000
v  -67.5000 2.5000 0.0000
v  -72.5000 2.5000 0.0000
v  70.1996 -1.0000 19.3705
v  70.1996 -1.0000 24.3705
v  -68.5002 -1.0000 24.3705
v  -68.5002 -1.0000 19.3705
v  70.1996 1.0000 24.3705
v  -68.5002 1.0000 24.3705
v  70.1996 1.0000 19.3705
v  -68.5002 1.0000 19.3705
v  67.5000 -2.5000 80.0000
v  72.5000 -2.5000 80.0000
v  72.5000 2.5000 80.0000
v  67.5000 2.5000 80.0000
v  67.5000 -2.5000 0.0000
v  72.5000 -2.5000 0.0000
v  72.5000 2.5000 0.0000
v  67.5000 2.5000 0.0000
v  -62.9187 -0.4742 22.0605
v  -3.7783 -0.4742 22.0605
v  -3.7783 -0.4742 55.1508
v  -62.9187 -0.4742 55.1508
v  -3.7783 0.6382 22.0605
v  -3.7783 0.6382 55.1508
v  -62.9187 0.6382 22.0605
v  -62.9187 0.6382 55.1508
v  2.4991 -0.4742 22.0605
v  61.6395 -0.4742 22.0605
v  61.6395 -0.4742 55.1508
v  2.4991 -0.4742 55.1508
v  61.6395 0.6382 22.0605
v  61.6395 0.6382 55.1508
v  2.4991 0.6382 22.0605
v  2.4991 0.6382 55.1508
# 48 vertices

vn 0.0000 -1.0000 0.0000
vn 0.0000 0.0000 1.0000
vn 0.0000 1.0000 0.0000
vn 0.0000 0.0000 -1.0000
vn 1.0000 0.0000 0.0000
vn -1.0000 0.0000 0.0000
# 6 vertex normals

vt 0.9828 0.9549 0.0000
vt 0.9828 0.9900 0.0000
vt 0.0079 0.9900 0.0000
vt 0.0079 0.9549 0.0000
vt 0.9828 0.8918 0.0000
vt 0.9828 0.9056 0.0000
vt 0.0079 0.9056 0.0000
vt 0.0079 0.8918 0.0000
vt 0.9828 0.9408 0.0000
vt 0.0079 0.9408 0.0000
vt 0.7806 0.6478 0.0000
vt 0.7806 0.7093 0.0000
vt 0.7191 0.7093 0.0000
vt 0.7191 0.6478 0.0000
vt 0.6476 0.0257 0.0000
vt 0.6930 0.0257 0.0000
vt 0.6930 0.7332 0.0000
vt 0.6476 0.7332 0.0000
vt 0.5137 0.0257 0.0000
vt 0.5586 0.0257 0.0000
vt 0.5586 0.7332 0.0000
vt 0.5137 0.7332 0.0000
vt 0.6034 0.0257 0.0000
vt 0.6034 0.7332 0.0000
vt 0.9828 0.8330 0.0000
vt 0.9828 0.8680 0.0000
vt 0.0079 0.8680 0.0000
vt 0.0079 0.8330 0.0000
vt 0.9828 0.7698 0.0000
vt 0.9828 0.7836 0.0000
vt 0.0079 0.7836 0.0000
vt 0.0079 0.7698 0.0000
vt 0.9828 0.8189 0.0000
vt 0.0079 0.8189 0.0000
vt 0.7783 0.4828 0.0000
vt 0.7783 0.5443 0.0000
vt 0.7168 0.5443 0.0000
vt 0.7168 0.4828 0.0000
vt 0.9378 0.0214 0.0000
vt 0.9830 0.0214 0.0000
vt 0.9830 0.7288 0.0000
vt 0.9378 0.7288 0.0000
vt 0.8039 0.0214 0.0000
vt 0.8486 0.0214 0.0000
vt 0.8486 0.7288 0.0000
vt 0.8039 0.7288 0.0000
vt 0.8935 0.0214 0.0000
vt 0.8935 0.7288 0.0000
vt 0.2586 0.0479 0.0000
vt 0.2586 0.3896 0.0000
vt 0.0674 0.3896 0.0000
vt 0.0674 0.0479 0.0000
vt 0.2586 0.3960 0.0000
vt 0.0674 0.3960 0.0000
vt 0.2586 0.7378 0.0000
vt 0.0674 0.7378 0.0000
vt 0.2586 0.0415 0.0000
vt 0.0674 0.0415 0.0000
vt 0.4713 0.0479 0.0000
vt 0.4713 0.3896 0.0000
vt 0.2801 0.3896 0.0000
vt 0.2801 0.0479 0.0000
vt 0.4713 0.3960 0.0000
vt 0.2801 0.3960 0.0000
vt 0.4713 0.7378 0.0000
vt 0.2801 0.7378 0.0000
vt 0.4713 0.0415 0.0000
vt 0.2801 0.0415 0.0000
# 68 texture coords

g Box003
f 1/1/1 2/2/1 3/3/1 
f 3/3/1 4/4/1 1/1/1 
f 2/5/2 5/6/2 6/7/2 
f 6/7/2 3/8/2 2/5/2 
f 5/6/3 7/9/3 8/10/3 
f 8/10/3 6/7/3 5/6/3 
f 7/9/4 1/1/4 4/4/4 
f 4/4/4 8/10/4 7/9/4 
f 9/11/2 10/12/2 11/13/2 
f 11/13/2 12/14/2 9/11/2 
f 13/15/1 14/16/1 10/17/1 
f 10/17/1 9/18/1 13/15/1 
f 14/19/5 15/20/5 11/21/5 
f 11/21/5 10/22/5 14/19/5 
f 15/20/3 16/23/3 12/24/3 
f 12/24/3 11/21/3 15/20/3 
f 16/23/6 13/15/6 9/18/6 
f 9/18/6 12/24/6 16/23/6 
f 17/25/1 18/26/1 19/27/1 
f 19/27/1 20/28/1 17/25/1 
f 18/29/2 21/30/2 22/31/2 
f 22/31/2 19/32/2 18/29/2 
f 21/30/3 23/33/3 24/34/3 
f 24/34/3 22/31/3 21/30/3 
f 23/33/4 17/25/4 20/28/4 
f 20/28/4 24/34/4 23/33/4 
f 25/35/2 26/36/2 27/37/2 
f 27/37/2 28/38/2 25/35/2 
f 29/39/1 30/40/1 26/41/1 
f 26/41/1 25/42/1 29/39/1 
f 30/43/5 31/44/5 27/45/5 
f 27/45/5 26/46/5 30/43/5 
f 31/44/3 32/47/3 28/48/3 
f 28/48/3 27/45/3 31/44/3 
f 32/47/6 29/39/6 25/42/6 
f 25/42/6 28/48/6 32/47/6 
f 33/49/1 34/50/1 35/51/1 
f 35/51/1 36/52/1 33/49/1 
f 34/50/5 37/53/5 38/54/5 
f 38/54/5 35/51/5 34/50/5 
f 37/53/3 39/55/3 40/56/3 
f 40/56/3 38/54/3 37/53/3 
f 39/57/6 33/49/6 36/52/6 
f 36/52/6 40/58/6 39/57/6 
f 41/59/1 42/60/1 43/61/1 
f 43/61/1 44/62/1 41/59/1 
f 42/60/5 45/63/5 46/64/5 
f 46/64/5 43/61/5 42/60/5 
f 45/63/3 47/65/3 48/66/3 
f 48/66/3 46/64/3 45/63/3 
f 47/67/6 41/59/6 44/62/6 
f 44/62/6 48/68/6 47/67/6 
# 52 faces

