# 3ds Max Wavefront OBJ Exporter v0.97b - (c)2007 guruware
# File Created: 18.05.2015 17:25:41

#
# object Intersection002
#

v  6.0000 -6.0000 0.0000
v  6.0000 -6.0000 -2.0000
v  6.0000 -10.0000 -2.0000
v  6.0000 -10.0000 0.0000
v  -10.0000 -10.0000 0.0000
v  -6.0000 -6.0000 0.0000
v  -10.0000 -6.0000 0.0000
v  -6.0000 -10.0000 0.0000
v  -6.0000 -10.0000 -2.0000
v  -6.0000 -6.0000 -2.0000
v  -10.0000 6.0000 -2.0000
v  -6.0000 6.0000 -2.0000
v  -6.0000 6.0000 0.0000
v  -10.0000 6.0000 0.0000
v  0.0000 0.0000 -2.0000
v  -10.0000 -6.0000 -2.0000
v  10.0000 -10.0000 0.0000
v  10.0000 -6.0000 0.0000
v  -10.0000 10.0000 0.0000
v  -6.0000 10.0000 0.0000
v  10.0000 -6.0000 -2.0000
v  10.0000 10.0000 0.0000
v  6.0000 6.0000 0.0000
v  10.0000 6.0000 0.0000
v  6.0000 6.0000 -2.0000
v  10.0000 6.0000 -2.0000
v  -6.0000 10.0000 -2.0000
v  6.0000 10.0000 0.0000
v  6.0000 10.0000 -2.0000
v  50.0000 -70.0000 0.0000
v  70.0000 -70.0000 0.0000
v  70.0000 -50.0000 0.0000
v  50.0000 -50.0000 0.0000
v  30.0000 -70.0000 0.0000
v  30.0000 -50.0000 0.0000
v  10.0000 -70.0000 0.0000
v  10.0000 -50.0000 0.0000
v  -10.0000 -70.0000 0.0000
v  -10.0000 -50.0000 0.0000
v  -30.0000 -70.0000 0.0000
v  -30.0000 -50.0000 0.0000
v  -50.0000 -70.0000 0.0000
v  -50.0000 -50.0000 0.0000
v  -70.0000 -70.0000 -0.0000
v  -50.0000 -70.0000 -0.0000
v  -50.0000 -50.0000 -0.0000
v  -70.0000 -50.0000 -0.0000
v  -70.0000 -50.0000 0.0000
v  -50.0000 -30.0000 0.0000
v  -70.0000 -30.0000 0.0000
v  -30.0000 -30.0000 0.0000
v  -10.0000 -30.0000 0.0000
v  -6.0000 -46.0000 0.0000
v  -6.0000 -46.0000 -2.0000
v  -6.0000 -30.0000 -2.0000
v  -6.0000 -30.0000 0.0000
v  10.0000 -30.0000 0.0000
v  6.0000 -34.0000 0.0000
v  10.0000 -34.0000 0.0000
v  6.0000 -34.0000 -2.0000
v  6.0000 -30.0000 -2.0000
v  6.0000 -30.0000 0.0000
v  10.0000 -46.0000 0.0000
v  10.0000 -46.0000 -2.0000
v  10.0000 -34.0000 -2.0000
v  30.0000 -34.0000 0.0000
v  30.0000 -30.0000 0.0000
v  30.0000 -46.0000 -2.0000
v  30.0000 -34.0000 -2.0000
v  30.0000 -46.0000 0.0000
v  46.0000 -46.0000 0.0000
v  46.0000 -46.0000 -2.0000
v  34.0000 -34.0000 0.0000
v  34.0000 -30.0000 0.0000
v  34.0000 -34.0000 -2.0000
v  46.0000 -30.0000 0.0000
v  46.0000 -30.0000 -2.0000
v  34.0000 -30.0000 -2.0000
v  50.0000 -30.0000 0.0000
v  70.0000 -30.0000 0.0000
v  70.0000 -10.0000 5.0000
v  50.0000 -10.0000 5.0000
v  50.0000 -10.0000 0.0000
v  70.0000 -10.0000 0.0000
v  34.0000 -10.0000 5.0000
v  30.0000 -10.0000 5.0000
v  46.0000 -10.0000 3.0000
v  34.0000 -10.0000 3.0000
v  46.0000 -10.0000 5.0000
v  30.0000 -10.0000 -0.0000
v  50.0000 -10.0000 -0.0000
v  -30.0000 -10.0000 0.0000
v  -50.0000 -10.0000 0.0000
v  -70.0000 -10.0000 0.0000
v  -50.0000 10.0000 0.0000
v  -70.0000 10.0000 0.0000
v  -46.0000 -6.0000 0.0000
v  -46.0000 -6.0000 -2.0000
v  -46.0000 10.0000 -2.0000
v  -46.0000 10.0000 0.0000
v  -30.0000 10.0000 0.0000
v  -34.0000 6.0000 0.0000
v  -30.0000 6.0000 0.0000
v  -34.0000 6.0000 -2.0000
v  -34.0000 10.0000 -2.0000
v  -34.0000 10.0000 0.0000
v  -30.0000 -6.0000 0.0000
v  -30.0000 -6.0000 -2.0000
v  -30.0000 6.0000 -2.0000
v  30.0000 6.0000 5.0000
v  30.0000 10.0000 5.0000
v  30.0000 -6.0000 3.0000
v  30.0000 6.0000 3.0000
v  30.0000 -6.0000 5.0000
v  30.0000 10.0000 -0.0000
v  46.0000 6.0000 5.0000
v  46.0000 6.0000 3.0000
v  34.0000 -6.0000 5.0000
v  34.0000 -6.0000 3.0000
v  50.0000 10.0000 5.0000
v  70.0000 10.0000 5.0000
v  70.0000 30.0000 5.0000
v  50.0000 30.0000 5.0000
v  30.0000 30.0000 5.0000
v  10.0000 30.0000 0.0000
v  30.0000 30.0000 0.0000
v  30.0000 10.0000 0.0000
v  6.0000 26.0000 0.0000
v  6.0000 26.0000 -2.0000
v  -6.0000 14.0000 0.0000
v  -10.0000 14.0000 0.0000
v  -6.0000 14.0000 -2.0000
v  -10.0000 26.0000 0.0000
v  -10.0000 26.0000 -2.0000
v  -10.0000 14.0000 -2.0000
v  -10.0000 30.0000 0.0000
v  -30.0000 30.0000 0.0000
v  -30.0000 26.0000 0.0000
v  -30.0000 26.0000 -2.0000
v  -30.0000 14.0000 -2.0000
v  -30.0000 14.0000 0.0000
v  -46.0000 26.0000 0.0000
v  -46.0000 26.0000 -2.0000
v  -34.0000 14.0000 0.0000
v  -34.0000 14.0000 -2.0000
v  -50.0000 30.0000 0.0000
v  -70.0000 30.0000 0.0000
v  -70.0000 30.0000 -0.0000
v  -50.0000 30.0000 -0.0000
v  -50.0000 50.0000 -0.0000
v  -70.0000 50.0000 -0.0000
v  -30.0000 30.0000 -0.0000
v  -30.0000 50.0000 -0.0000
v  -10.0000 30.0000 -0.0000
v  -10.0000 50.0000 -0.0000
v  10.0000 50.0000 0.0000
v  -10.0000 50.0000 0.0000
v  30.0000 50.0000 5.0000
v  30.0000 50.0000 0.0000
v  50.0000 50.0000 5.0000
v  70.0000 50.0000 5.0000
# 161 vertices

vn -1.0000 0.0000 0.0000
vn 0.0000 0.0000 1.0000
vn 1.0000 0.0000 0.0000
vn 0.0000 -1.0000 0.0000
vn 0.0000 1.0000 0.0000
vn 1.0000 -0.0000 0.0000
vn -1.0000 -0.0000 0.0000
vn 0.0000 -0.2425 0.9701
vn -0.0000 -0.2425 0.9701
vn -0.2425 0.0000 0.9701
vn -0.2425 -0.0000 0.9701
# 11 vertex normals

vt 0.0006 0.9996 0.0000
vt 0.0006 0.8745 0.0000
vt 0.0932 0.8745 0.0000
vt 0.0932 0.9996 0.0000
vt 0.0006 0.6798 0.0000
vt 0.0932 0.2656 0.0000
vt 0.0932 0.5713 0.0000
vt 0.0006 0.2656 0.0000
vt 0.1725 0.6778 0.0000
vt 0.3159 0.6778 0.0000
vt 0.3159 0.8213 0.0000
vt 0.1725 0.8213 0.0000
vt 0.0932 0.6798 0.0000
vt 0.0002 0.5541 0.0000
vt 0.0002 0.2656 0.0000
vt 0.0930 0.2656 0.0000
# 16 texture coords

g Intersection002
f 1/1/1 2/2/1 3/3/1 
f 3/3/1 4/4/1 1/1/1 
f 5/5/2 6/3/2 7/2/2 
f 8/1/3 9/2/3 10/3/3 
f 10/3/3 6/4/3 8/1/3 
f 11/2/4 12/3/4 13/4/4 
f 13/4/4 14/1/4 11/2/4 
f 10/6/2 15/7/2 12/3/2 
f 10/6/2 12/3/2 11/2/2 
f 10/6/2 11/2/2 16/8/2 
f 7/4/5 6/1/5 10/2/5 
f 10/2/5 16/3/5 7/4/5 
f 1/3/2 17/5/2 18/2/2 
f 19/5/2 13/3/2 20/2/2 
f 1/4/5 18/1/5 21/2/5 
f 21/2/5 2/3/5 1/4/5 
f 22/5/2 23/3/2 24/2/2 
f 25/3/2 15/7/2 2/6/2 
f 25/3/2 2/6/2 21/8/2 
f 25/3/2 21/8/2 26/2/2 
f 24/4/4 23/1/4 25/2/4 
f 25/2/4 26/3/4 24/4/4 
f 27/3/6 20/4/6 13/1/6 
f 13/1/6 12/2/6 27/3/6 
f 28/1/7 29/2/7 25/3/7 
f 25/3/7 23/4/7 28/1/7 
f 10/6/2 9/8/2 3/2/2 
f 10/6/2 3/2/2 2/3/2 
f 10/6/2 2/3/2 15/7/2 
f 25/3/2 29/2/2 27/8/2 
f 25/3/2 27/8/2 12/6/2 
f 25/3/2 12/6/2 15/7/2 
f 5/5/2 8/2/2 6/3/2 
f 1/3/2 4/2/2 17/5/2 
f 22/5/2 28/2/2 23/3/2 
f 19/5/2 14/2/2 13/3/2 
f 30/9/2 31/10/2 32/11/2 
f 32/11/2 33/12/2 30/9/2 
f 34/9/2 30/10/2 33/11/2 
f 33/11/2 35/12/2 34/9/2 
f 36/9/2 34/10/2 35/11/2 
f 35/11/2 37/12/2 36/9/2 
f 38/9/2 36/10/2 37/11/2 
f 37/11/2 39/12/2 38/9/2 
f 40/9/2 38/10/2 39/11/2 
f 39/11/2 41/12/2 40/9/2 
f 42/9/2 40/10/2 41/11/2 
f 41/11/2 43/12/2 42/9/2 
f 44/9/2 45/10/2 46/11/2 
f 46/11/2 47/12/2 44/9/2 
f 48/9/2 43/10/2 49/11/2 
f 49/11/2 50/12/2 48/9/2 
f 43/9/2 41/10/2 51/11/2 
f 51/11/2 49/12/2 43/9/2 
f 41/9/2 39/10/2 52/11/2 
f 52/11/2 51/12/2 41/9/2 
f 53/1/3 54/2/3 55/3/3 
f 55/3/3 56/4/3 53/1/3 
f 57/5/2 58/3/2 59/2/2 
f 60/6/2 61/8/2 55/2/2 
f 55/2/2 54/3/2 60/6/2 
f 56/3/2 52/13/2 39/5/2 
f 39/5/2 53/2/2 56/3/2 
f 62/1/7 61/2/7 60/3/7 
f 60/3/7 58/4/7 62/1/7 
f 53/4/5 63/1/5 64/2/5 
f 64/2/5 54/3/5 53/4/5 
f 60/6/2 54/3/2 64/2/2 
f 64/2/2 65/8/2 60/6/2 
f 63/3/2 53/2/2 39/5/2 
f 39/5/2 37/13/2 63/3/2 
f 59/4/4 58/1/4 60/2/4 
f 60/2/4 65/3/4 59/4/4 
f 57/5/2 62/2/2 58/3/2 
f 57/13/2 59/3/2 66/2/2 
f 66/2/2 67/5/2 57/13/2 
f 65/6/2 64/3/2 68/2/2 
f 68/2/2 69/8/2 65/6/2 
f 63/3/2 37/13/2 35/5/2 
f 35/5/2 70/2/2 63/3/2 
f 66/2/4 59/3/4 65/4/4 
f 65/4/4 69/1/4 66/2/4 
f 63/3/5 70/2/5 68/1/5 
f 68/1/5 64/4/5 63/3/5 
f 71/1/5 72/2/5 68/3/5 
f 68/3/5 70/4/5 71/1/5 
f 67/5/2 73/3/2 74/2/2 
f 75/6/2 69/8/2 68/2/2 
f 68/2/2 72/3/2 75/6/2 
f 70/3/2 35/13/2 33/5/2 
f 33/5/2 71/2/2 70/3/2 
f 66/1/4 69/2/4 75/3/4 
f 75/3/4 73/4/4 66/1/4 
f 71/4/1 76/1/1 77/2/1 
f 77/2/1 72/3/1 71/4/1 
f 75/6/2 72/3/2 77/2/2 
f 77/2/2 78/8/2 75/6/2 
f 76/3/2 71/2/2 33/5/2 
f 33/5/2 79/13/2 76/3/2 
f 74/4/3 73/1/3 75/2/3 
f 75/2/3 78/3/3 74/4/3 
f 67/5/2 66/2/2 73/3/2 
f 33/9/2 32/10/2 80/11/2 
f 80/11/2 79/12/2 33/9/2 
f 79/9/8 80/10/8 81/11/8 
f 81/11/8 82/12/8 79/9/8 
f 82/14/1 83/15/1 79/16/1 
f 81/14/3 80/16/3 84/15/3 
f 67/13/9 74/3/9 85/2/9 
f 85/2/8 86/5/8 67/13/8 
f 78/6/8 77/3/8 87/2/8 
f 87/2/8 88/8/8 78/6/8 
f 76/3/8 79/13/8 82/5/8 
f 82/5/8 89/2/8 76/3/8 
f 85/2/3 74/3/3 78/4/3 
f 78/4/3 88/1/3 85/2/3 
f 76/3/1 89/2/1 87/1/1 
f 87/1/1 77/4/1 76/3/1 
f 86/14/1 90/15/1 67/16/1 
f 82/14/3 79/16/3 91/15/3 
f 86/12/8 57/10/8 67/11/8 
f 86/12/10 17/9/10 57/10/10 
f 52/13/2 56/3/2 8/2/2 
f 8/2/2 5/5/2 52/13/2 
f 55/6/2 61/3/2 3/2/2 
f 3/2/2 9/8/2 55/6/2 
f 62/3/2 57/13/2 17/5/2 
f 17/5/2 4/2/2 62/3/2 
f 8/2/3 56/3/3 55/4/3 
f 55/4/3 9/1/3 8/2/3 
f 62/3/1 4/2/1 3/1/1 
f 3/1/1 61/4/1 62/3/1 
f 51/9/2 52/10/2 5/11/2 
f 5/11/2 92/12/2 51/9/2 
f 49/9/2 51/10/2 92/11/2 
f 92/11/2 93/12/2 49/9/2 
f 50/9/2 49/10/2 93/11/2 
f 93/11/2 94/12/2 50/9/2 
f 94/9/2 93/10/2 95/11/2 
f 95/11/2 96/12/2 94/9/2 
f 97/1/3 98/2/3 99/3/3 
f 99/3/3 100/4/3 97/1/3 
f 101/5/2 102/3/2 103/2/2 
f 104/6/2 105/8/2 99/2/2 
f 99/2/2 98/3/2 104/6/2 
f 100/3/2 95/13/2 93/5/2 
f 93/5/2 97/2/2 100/3/2 
f 106/1/1 105/2/1 104/3/1 
f 104/3/1 102/4/1 106/1/1 
f 97/4/5 107/1/5 108/2/5 
f 108/2/5 98/3/5 97/4/5 
f 104/6/2 98/3/2 108/2/2 
f 108/2/2 109/8/2 104/6/2 
f 107/3/2 97/2/2 93/5/2 
f 93/5/2 92/13/2 107/3/2 
f 103/4/4 102/1/4 104/2/4 
f 104/2/4 109/3/4 103/4/4 
f 101/5/2 106/2/2 102/3/2 
f 5/13/2 7/3/2 107/2/2 
f 107/2/2 92/5/2 5/13/2 
f 16/6/2 11/3/2 109/2/2 
f 109/2/2 108/8/2 16/6/2 
f 14/3/2 19/13/2 101/5/2 
f 101/5/2 103/2/2 14/3/2 
f 107/2/5 7/3/5 16/4/5 
f 16/4/5 108/1/5 107/2/5 
f 14/3/4 103/2/4 109/1/4 
f 109/1/4 11/4/4 14/3/4 
f 22/13/10 24/3/10 110/2/10 
f 110/2/10 111/5/10 22/13/10 
f 26/6/10 21/3/10 112/2/10 
f 112/2/10 113/8/10 26/6/10 
f 18/3/11 17/13/11 86/5/11 
f 86/5/10 114/2/10 18/3/10 
f 110/2/4 24/3/4 26/4/4 
f 26/4/4 113/1/4 110/2/4 
f 18/3/5 114/2/5 112/1/5 
f 112/1/5 21/4/5 18/3/5 
f 111/14/5 115/15/5 22/16/5 
f 86/14/4 17/16/4 90/15/4 
f 116/1/1 117/2/1 87/3/1 
f 87/3/1 89/4/1 116/1/1 
f 86/5/2 118/3/2 114/2/2 
f 119/6/2 88/8/2 87/2/2 
f 87/2/2 117/3/2 119/6/2 
f 89/3/2 82/13/2 120/5/2 
f 120/5/2 116/2/2 89/3/2 
f 85/1/3 88/2/3 119/3/3 
f 119/3/3 118/4/3 85/1/3 
f 116/4/4 110/1/4 113/2/4 
f 113/2/4 117/3/4 116/4/4 
f 119/6/2 117/3/2 113/2/2 
f 113/2/2 112/8/2 119/6/2 
f 110/3/2 116/2/2 120/5/2 
f 120/5/2 111/13/2 110/3/2 
f 114/4/5 118/1/5 119/2/5 
f 119/2/5 112/3/5 114/4/5 
f 86/5/2 85/2/2 118/3/2 
f 120/9/2 121/10/2 122/11/2 
f 122/11/2 123/12/2 120/9/2 
f 111/9/2 120/10/2 123/11/2 
f 123/11/2 124/12/2 111/9/2 
f 82/9/2 81/10/2 121/11/2 
f 121/11/2 120/12/2 82/9/2 
f 125/9/10 22/10/10 111/11/10 
f 111/11/10 124/12/10 125/9/10 
f 124/14/5 126/15/5 125/16/5 
f 111/14/4 22/16/4 127/15/4 
f 128/1/1 129/2/1 29/3/1 
f 29/3/1 28/4/1 128/1/1 
f 19/5/2 130/3/2 131/2/2 
f 132/6/2 27/8/2 29/2/2 
f 29/2/2 129/3/2 132/6/2 
f 28/3/2 22/13/2 125/5/2 
f 125/5/2 128/2/2 28/3/2 
f 20/1/3 27/2/3 132/3/3 
f 132/3/3 130/4/3 20/1/3 
f 128/4/4 133/1/4 134/2/4 
f 134/2/4 129/3/4 128/4/4 
f 132/6/2 129/3/2 134/2/2 
f 134/2/2 135/8/2 132/6/2 
f 133/3/2 128/2/2 125/5/2 
f 125/5/2 136/13/2 133/3/2 
f 131/4/5 130/1/5 132/2/5 
f 132/2/5 135/3/5 131/4/5 
f 19/5/2 20/2/2 130/3/2 
f 137/13/2 138/3/2 133/2/2 
f 133/2/2 136/5/2 137/13/2 
f 139/6/2 140/3/2 135/2/2 
f 135/2/2 134/8/2 139/6/2 
f 141/3/2 101/13/2 19/5/2 
f 19/5/2 131/2/2 141/3/2 
f 133/2/4 138/3/4 139/4/4 
f 139/4/4 134/1/4 133/2/4 
f 141/3/5 131/2/5 135/1/5 
f 135/1/5 140/4/5 141/3/5 
f 142/1/4 143/2/4 139/3/4 
f 139/3/4 138/4/4 142/1/4 
f 101/5/2 144/3/2 106/2/2 
f 145/6/2 140/8/2 139/2/2 
f 139/2/2 143/3/2 145/6/2 
f 138/3/2 137/13/2 146/5/2 
f 146/5/2 142/2/2 138/3/2 
f 141/1/5 140/2/5 145/3/5 
f 145/3/5 144/4/5 141/1/5 
f 142/4/3 100/1/3 99/2/3 
f 99/2/3 143/3/3 142/4/3 
f 145/6/2 143/3/2 99/2/2 
f 99/2/2 105/8/2 145/6/2 
f 100/3/2 142/2/2 146/5/2 
f 146/5/2 95/13/2 100/3/2 
f 106/4/1 144/1/1 145/2/1 
f 145/2/1 105/3/1 106/4/1 
f 101/5/2 141/2/2 144/3/2 
f 96/9/2 95/10/2 146/11/2 
f 146/11/2 147/12/2 96/9/2 
f 148/9/2 149/10/2 150/11/2 
f 150/11/2 151/12/2 148/9/2 
f 149/9/2 152/10/2 153/11/2 
f 153/11/2 150/12/2 149/9/2 
f 152/9/2 154/10/2 155/11/2 
f 155/11/2 153/12/2 152/9/2 
f 136/9/2 125/10/2 156/11/2 
f 156/11/2 157/12/2 136/9/2 
f 156/9/10 125/10/10 124/11/10 
f 124/11/10 158/12/10 156/9/10 
f 158/14/5 159/15/5 156/16/5 
f 124/14/4 125/16/4 126/15/4 
f 124/9/2 123/10/2 160/11/2 
f 160/11/2 158/12/2 124/9/2 
f 123/9/2 122/10/2 161/11/2 
f 161/11/2 160/12/2 123/9/2 
# 272 faces

