# 3ds Max Wavefront OBJ Exporter v0.97b - (c)2007 guruware
# File Created: 20.05.2015 18:57:12

#
# object Cliff013
#

v  25.0000 -6.7904 0.0000
v  25.0000 25.0000 0.0000
v  -25.0000 25.0000 0.0000
v  12.5000 -8.3525 0.0000
v  0.0000 -6.7904 0.0000
v  -12.5000 -4.6281 0.0000
v  -25.0000 -6.7904 0.0000
v  0.0000 -14.1108 -26.6667
v  12.5000 -15.6728 -26.6667
v  12.5000 -13.7417 -13.3333
v  0.0000 -12.1796 -13.3333
v  -12.5000 -15.5310 -40.0000
v  -25.0000 -17.6934 -40.0000
v  -25.0000 -25.0000 -40.0000
v  0.0000 -17.6934 -40.0000
v  12.5000 -19.2554 -40.0000
v  25.0000 -17.6934 -40.0000
v  25.0000 -25.0000 -40.0000
v  -25.0000 -14.1108 -26.6667
v  -12.5000 -11.9484 -26.6667
v  -12.5000 -10.0173 -13.3333
v  -25.0000 -12.1796 -13.3333
v  25.0000 -12.1796 -13.3333
v  25.0000 -14.1108 -26.6667
# 24 vertices

vn 0.0000 0.0000 1.0000
vn -0.1444 -0.9691 0.1998
vn 0.0000 -0.9792 0.2027
vn 0.0000 -0.9660 0.2586
vn -0.1421 -0.9557 0.2579
vn 0.1670 -0.9654 0.2002
vn 0.0000 -0.9797 0.2005
vn 0.0000 -0.9645 0.2643
vn 0.1649 -0.9530 0.2542
vn 0.1197 -0.9578 0.2614
vn 0.1215 -0.9724 0.1994
vn -0.1418 -0.9560 0.2569
vn 0.0000 -0.9657 0.2595
vn 0.0000 -0.9271 0.3747
vn -0.1375 -0.9183 0.3712
vn 0.1648 -0.9525 0.2559
vn 0.1584 -0.9154 0.3700
vn 0.1151 -0.9210 0.3722
vn 0.1198 -0.9588 0.2576
# 19 vertex normals

vt 0.0018 0.6823 0.0000
vt 0.0018 0.9985 0.0000
vt 0.4987 0.9985 0.0000
vt 0.1246 0.6667 0.0000
vt 0.2492 0.6823 0.0000
vt 0.3738 0.7039 0.0000
vt 0.4987 0.6823 0.0000
vt 0.7506 0.6668 0.0000
vt 0.8753 0.6668 0.0000
vt 0.8753 0.8334 0.0000
vt 0.7506 0.8334 0.0000
vt 0.3738 0.5949 0.0000
vt 0.4987 0.5733 0.0000
vt 0.4987 0.5021 0.0000
vt 0.2492 0.5733 0.0000
vt 0.1246 0.5577 0.0000
vt 0.0018 0.5733 0.0000
vt 0.0018 0.5021 0.0000
vt 0.5010 0.6668 0.0000
vt 0.6258 0.6668 0.0000
vt 0.6258 0.8334 0.0000
vt 0.5010 0.8334 0.0000
vt 0.9984 0.8334 0.0000
vt 0.9984 0.6668 0.0000
vt 0.7506 0.5021 0.0000
vt 0.8753 0.5021 0.0000
vt 0.8753 0.9985 0.0000
vt 0.7506 0.9985 0.0000
vt 0.5010 0.5021 0.0000
vt 0.6258 0.5021 0.0000
vt 0.6258 0.9985 0.0000
vt 0.5010 0.9985 0.0000
vt 0.9984 0.9985 0.0000
vt 0.9984 0.5021 0.0000
# 34 texture coords

g Cliff013
s off
f 1/1/1 2/2/1 3/3/1 
f 4/4/1 1/1/1 3/3/1 
f 5/5/1 4/4/1 3/3/1 
f 6/6/1 5/5/1 3/3/1 
f 7/7/1 6/6/1 3/3/1 
s 1
f 8/8/2 9/9/3 10/10/4 
f 10/10/4 11/11/5 8/8/2 
s off
f 12/12/1 13/13/1 14/14/1 
f 15/15/1 12/12/1 14/14/1 
f 16/16/1 15/15/1 14/14/1 
f 17/17/1 16/16/1 14/14/1 
f 17/17/1 14/14/1 18/18/1 
s 1
f 19/19/6 20/20/7 21/21/8 
f 21/21/8 22/22/9 19/19/6 
f 20/20/7 8/8/2 11/11/5 
f 11/11/5 21/21/8 20/20/7 
f 23/23/10 10/10/4 9/9/3 
f 9/9/3 24/24/11 23/23/10 
f 15/25/12 16/26/13 9/9/3 
f 9/9/3 8/8/2 15/25/12 
f 4/27/14 5/28/15 11/11/5 
f 11/11/5 10/10/4 4/27/14 
f 13/29/16 12/30/13 20/20/7 
f 20/20/7 19/19/6 13/29/16 
f 6/31/14 7/32/17 22/22/9 
f 22/22/9 21/21/8 6/31/14 
f 12/30/13 15/25/12 8/8/2 
f 8/8/2 20/20/7 12/30/13 
f 5/28/15 6/31/14 21/21/8 
f 21/21/8 11/11/5 5/28/15 
f 1/33/18 4/27/14 10/10/4 
f 10/10/4 23/23/10 1/33/18 
f 16/26/13 17/34/19 24/24/11 
f 24/24/11 9/9/3 16/26/13 
# 34 faces

