# 3ds Max Wavefront OBJ Exporter v0.97b - (c)2007 guruware
# File Created: 29.05.2015 16:22:50

#
# object Box002
#

v  5.5315 -5.1831 3.1537
v  5.1977 -0.0986 1.9434
v  2.0241 -1.0492 1.9282
v  0.8386 -3.9800 2.3604
v  4.9067 -8.8121 3.3177
v  0.4149 -7.6332 2.3166
v  4.3837 -13.1409 1.6900
v  1.7259 -12.1265 2.5733
v  8.5258 -5.4200 3.3988
v  8.1856 -0.3885 2.1044
v  7.9010 -9.0489 3.4443
v  7.3716 -13.4308 2.2438
v  11.8031 -5.9849 2.5600
v  11.0051 -1.7746 2.4543
v  11.3794 -9.6381 2.0028
v  10.7069 -12.8519 1.5393
v  2.8169 -0.7921 -1.4543
v  -0.6689 -4.2809 -1.0221
v  0.4400 -8.1194 -1.0659
v  0.7290 -11.6531 -0.8092
v  4.0029 -12.2729 -1.6925
v  6.8943 -13.3610 -1.1387
v  9.7250 -12.2544 -1.8432
v  11.5361 -9.0356 -1.3797
v  10.4272 -5.1972 -0.8225
v  11.8129 -1.3934 -0.9282
v  8.2298 -0.3818 -1.2781
v  5.3384 0.7064 -1.4391
v  -5.6471 7.0920 3.1537
v  -1.8311 10.4686 1.9434
v  -4.5255 12.3961 1.9282
v  -7.5687 11.5393 2.3604
v  -8.8991 5.3645 3.3177
v  -10.7168 9.6378 2.3166
v  -12.6421 3.1279 1.6900
v  -13.4671 5.8505 2.5733
v  -4.0014 4.5794 3.3988
v  -0.2312 7.9286 2.1044
v  -7.2533 2.8519 3.4443
v  -11.0422 0.5879 2.2438
v  -2.4417 1.6422 2.5600
v  0.3990 4.8506 2.4542
v  -5.5897 -0.2593 2.0028
v  -8.5426 -1.6950 1.5393
v  -3.8369 11.9267 -1.4543
v  -8.7296 12.5471 -1.0221
v  -11.0858 9.3204 -1.0659
v  -13.7030 6.9286 -0.8092
v  -12.1889 3.9605 -1.6925
v  -11.2793 1.0081 -1.1387
v  -8.6713 -0.5528 -1.8432
v  -5.0174 -0.0143 -1.3797
v  -2.6612 3.2123 -0.8225
v  1.1948 4.4453 -0.9282
v  -0.1988 7.8977 -1.2781
v  -1.1084 10.8501 -1.4391
# 56 vertices

vn -0.0913 0.1325 0.9870
vn -0.0558 0.2336 0.9707
vn -0.0933 0.2094 0.9734
vn -0.1515 0.1150 0.9817
vn -0.1579 -0.1334 0.9784
vn -0.1622 -0.0547 0.9852
vn -0.1095 -0.2283 0.9674
vn 0.3655 0.1590 0.9171
vn 0.1276 0.1059 0.9862
vn 0.0123 0.2049 0.9787
vn 0.1370 -0.1260 0.9825
vn 0.0278 -0.2985 0.9540
vn 0.1960 -0.0207 0.9804
vn -0.1223 0.0018 0.9925
vn 0.3242 -0.1593 0.9325
vn 0.2898 -0.2491 0.9241
vn -0.8925 0.3847 0.2353
vn -0.9196 0.3441 -0.1894
vn -0.8232 0.5659 0.0460
vn -0.9177 0.3019 0.2580
vn -0.9741 -0.1842 0.1316
vn -0.9688 -0.2323 0.0863
vn -0.9729 -0.1695 0.1571
vn -0.9598 -0.0585 0.2747
vn -0.1710 -0.9675 -0.1861
vn -0.3632 -0.9314 -0.0233
vn -0.2961 -0.9462 -0.1303
vn -0.2290 -0.9595 -0.1638
vn -0.0013 -0.9969 -0.0784
vn -0.0831 -0.9949 -0.0569
vn 0.2281 -0.9633 -0.1416
vn 0.2981 -0.9214 -0.2493
vn 0.9700 -0.2303 -0.0779
vn 0.9414 -0.1537 -0.3004
vn 0.9276 -0.3304 -0.1743
vn 0.9756 -0.1958 -0.0989
vn 0.9612 0.1398 -0.2377
vn 0.9732 0.1090 -0.2026
vn 0.9922 -0.1083 -0.0619
vn 0.9253 -0.3320 0.1835
vn 0.2265 0.9725 0.0536
vn 0.4124 0.8891 0.1987
vn 0.3416 0.9346 0.0989
vn 0.2493 0.9659 0.0704
vn -0.0416 0.9849 0.1678
vn -0.0326 0.9852 0.1680
vn -0.3888 0.9164 0.0950
vn -0.5099 0.8586 -0.0542
vn 0.0489 0.1533 0.9870
vn 0.1506 0.1871 0.9707
vn 0.1085 0.2020 0.9734
vn -0.0018 0.1902 0.9817
vn -0.2022 0.0432 0.9784
vn -0.1426 0.0948 0.9852
vn -0.2475 -0.0532 0.9674
vn 0.3495 -0.1916 0.9171
vn 0.1618 -0.0361 0.9862
vn 0.1696 0.1157 0.9787
vn -0.0158 -0.1855 0.9825
vn -0.2190 -0.2047 0.9540
vn 0.1036 -0.1676 0.9804
vn -0.0735 0.0978 0.9925
vn 0.0725 -0.3539 0.9325
vn -0.0195 -0.3816 0.9241
vn -0.2422 0.9413 0.2353
vn -0.2909 0.9378 -0.1894
vn -0.0565 0.9973 0.0460
vn -0.3231 0.9105 0.2580
vn -0.7419 0.6575 0.1316
vn -0.7768 0.6239 0.0863
vn -0.7297 0.6655 0.1571
vn -0.6338 0.7231 0.2747
vn -0.8697 -0.4571 -0.1861
vn -0.9588 -0.2830 -0.0233
vn -0.9295 -0.3452 -0.1303
vn -0.8989 -0.4063 -0.1638
vn -0.7891 -0.6093 -0.0784
vn -0.8375 -0.5434 -0.0569
vn -0.6220 -0.7701 -0.1416
vn -0.5460 -0.7998 -0.2493
vn 0.4117 -0.9080 -0.0779
vn 0.4548 -0.8384 -0.3004
vn 0.3066 -0.9357 -0.1743
vn 0.4424 -0.8913 -0.0989
vn 0.6990 -0.6744 -0.2377
vn 0.6819 -0.7028 -0.2026
vn 0.5218 -0.8508 -0.0619
vn 0.3039 -0.9348 0.1835
vn 0.9077 0.4162 0.0536
vn 0.9555 0.2182 0.1987
vn 0.9481 0.3020 0.0989
vn 0.9163 0.3942 0.0704
vn 0.7533 0.6359 0.1678
vn 0.7591 0.6289 0.1680
vn 0.4866 0.8685 0.0950
vn 0.3667 0.9287 -0.0542
# 96 vertex normals

vt 0.2649 0.3628 0.0000
vt 0.2794 0.4652 0.0000
vt 0.1814 0.4753 0.0000
vt 0.1669 0.3729 0.0000
vt 0.2503 0.2604 0.0000
vt 0.1524 0.2705 0.0000
vt 0.2358 0.1581 0.0000
vt 0.1379 0.1681 0.0000
vt 0.3628 0.3527 0.0000
vt 0.3773 0.4551 0.0000
vt 0.3483 0.2503 0.0000
vt 0.3338 0.1480 0.0000
vt 0.4608 0.3426 0.0000
vt 0.4753 0.4450 0.0000
vt 0.4463 0.2402 0.0000
vt 0.4318 0.1379 0.0000
vt 0.1669 0.4753 0.0000
vt 0.1814 0.1379 0.0000
vt 0.1669 0.1379 0.0000
vt 0.1524 0.4753 0.0000
vt 0.1524 0.1379 0.0000
vt 0.1379 0.4753 0.0000
vt 0.1379 0.1379 0.0000
vt 0.1581 0.4753 0.0000
vt 0.1681 0.4753 0.0000
vt 0.1681 0.1379 0.0000
vt 0.1581 0.1379 0.0000
vt 0.1480 0.4753 0.0000
vt 0.1480 0.1379 0.0000
vt 0.4463 0.4753 0.0000
vt 0.4318 0.4753 0.0000
vt 0.4463 0.1379 0.0000
vt 0.4608 0.4753 0.0000
vt 0.4608 0.1379 0.0000
vt 0.4753 0.4753 0.0000
vt 0.4753 0.1379 0.0000
vt 0.4551 0.4753 0.0000
vt 0.4450 0.4753 0.0000
vt 0.4450 0.1379 0.0000
vt 0.4551 0.1379 0.0000
vt 0.4652 0.4753 0.0000
vt 0.4652 0.1379 0.0000
# 42 texture coords

g Box002
f 1/1/1 2/2/2 3/3/3 
f 3/3/3 4/4/4 1/1/1 
f 5/5/5 1/1/1 4/4/4 
f 4/4/4 6/6/6 5/5/5 
f 7/7/7 5/5/5 6/6/6 
f 6/6/6 8/8/8 7/7/7 
f 9/9/9 10/10/10 2/2/2 
f 2/2/2 1/1/1 9/9/9 
f 11/11/11 9/9/9 1/1/1 
f 1/1/1 5/5/5 11/11/11 
f 12/12/12 11/11/11 5/5/5 
f 5/5/5 7/7/7 12/12/12 
f 13/13/13 14/14/14 10/10/10 
f 10/10/10 9/9/9 13/13/13 
f 15/15/15 13/13/13 9/9/9 
f 9/9/9 11/11/11 15/15/15 
f 16/16/16 15/15/15 11/11/11 
f 11/11/11 12/12/12 16/16/16 
f 4/17/17 3/3/18 17/18/19 
f 17/18/19 18/19/20 4/17/17 
f 6/20/21 4/17/17 18/19/20 
f 18/19/20 19/21/22 6/20/21 
f 8/22/23 6/20/21 19/21/22 
f 19/21/22 20/23/24 8/22/23 
f 7/24/25 8/25/26 20/26/27 
f 20/26/27 21/27/28 7/24/25 
f 12/28/29 7/24/25 21/27/28 
f 21/27/28 22/29/30 12/28/29 
f 16/22/31 12/28/29 22/29/30 
f 22/29/30 23/23/32 16/22/31 
f 15/30/33 16/31/34 23/16/35 
f 23/16/35 24/32/36 15/30/33 
f 13/33/37 15/30/33 24/32/36 
f 24/32/36 25/34/38 13/33/37 
f 14/35/39 13/33/37 25/34/38 
f 25/34/38 26/36/40 14/35/39 
f 10/37/41 14/38/42 26/39/43 
f 26/39/43 27/40/44 10/37/41 
f 2/41/45 10/37/41 27/40/44 
f 27/40/44 28/42/46 2/41/45 
f 3/35/47 2/41/45 28/42/46 
f 28/42/46 17/36/48 3/35/47 
f 29/1/49 30/2/50 31/3/51 
f 31/3/51 32/4/52 29/1/49 
f 33/5/53 29/1/49 32/4/52 
f 32/4/52 34/6/54 33/5/53 
f 35/7/55 33/5/53 34/6/54 
f 34/6/54 36/8/56 35/7/55 
f 37/9/57 38/10/58 30/2/50 
f 30/2/50 29/1/49 37/9/57 
f 39/11/59 37/9/57 29/1/49 
f 29/1/49 33/5/53 39/11/59 
f 40/12/60 39/11/59 33/5/53 
f 33/5/53 35/7/55 40/12/60 
f 41/13/61 42/14/62 38/10/58 
f 38/10/58 37/9/57 41/13/61 
f 43/15/63 41/13/61 37/9/57 
f 37/9/57 39/11/59 43/15/63 
f 44/16/64 43/15/63 39/11/59 
f 39/11/59 40/12/60 44/16/64 
f 32/17/65 31/3/66 45/18/67 
f 45/18/67 46/19/68 32/17/65 
f 34/20/69 32/17/65 46/19/68 
f 46/19/68 47/21/70 34/20/69 
f 36/22/71 34/20/69 47/21/70 
f 47/21/70 48/23/72 36/22/71 
f 35/24/73 36/25/74 48/26/75 
f 48/26/75 49/27/76 35/24/73 
f 40/28/77 35/24/73 49/27/76 
f 49/27/76 50/29/78 40/28/77 
f 44/22/79 40/28/77 50/29/78 
f 50/29/78 51/23/80 44/22/79 
f 43/30/81 44/31/82 51/16/83 
f 51/16/83 52/32/84 43/30/81 
f 41/33/85 43/30/81 52/32/84 
f 52/32/84 53/34/86 41/33/85 
f 42/35/87 41/33/85 53/34/86 
f 53/34/86 54/36/88 42/35/87 
f 38/37/89 42/38/90 54/39/91 
f 54/39/91 55/40/92 38/37/89 
f 30/41/93 38/37/89 55/40/92 
f 55/40/92 56/42/94 30/41/93 
f 31/35/95 30/41/93 56/42/94 
f 56/42/94 45/36/96 31/35/95 
# 84 faces

