# 3ds Max Wavefront OBJ Exporter v0.97b - (c)2007 guruware
# File Created: 25.05.2015 17:57:35

#
# object Box001
#

v  -2.2559 -1.0000 0.0000
v  2.2559 -1.0000 0.0000
v  2.2559 -5.6184 0.0000
v  -2.2559 -5.6184 0.0000
v  -2.2559 -5.6184 20.0000
v  2.2559 -5.6184 20.0000
v  2.2559 5.6184 20.0000
v  -2.2559 5.6184 20.0000
v  -2.2559 -6.0000 10.0000
v  2.2559 -6.0000 10.0000
v  2.2559 -6.0000 19.0000
v  -2.2559 -6.0000 19.0000
v  2.7111 0.0000 10.0000
v  2.7111 5.6184 10.0000
v  2.7111 5.6184 19.0000
v  2.7111 -5.6184 10.0000
v  2.7111 -5.6184 19.0000
v  2.2559 6.0660 10.0000
v  -2.2559 6.0660 10.0000
v  -2.2559 6.0660 19.0000
v  2.2559 6.0660 19.0000
v  -2.7110 0.0000 10.0000
v  -2.7110 -5.6184 10.0000
v  -2.7110 -5.6184 19.0000
v  -2.7110 5.6184 10.0000
v  -2.7110 5.6184 19.0000
v  -2.2559 5.6184 0.0000
v  2.2559 5.6184 0.0000
v  2.2559 1.0000 0.0000
v  -2.2559 1.0000 0.0000
v  -2.2559 -1.0000 10.0000
v  -2.2559 -5.6184 10.0000
v  -2.3985 -5.9113 10.0000
v  -2.2559 1.0000 10.0000
v  2.2559 1.0000 10.0000
v  2.2559 -1.0000 10.0000
v  2.3985 -5.9113 10.0000
v  2.2559 -5.6184 10.0000
v  -2.3985 5.8679 10.0000
v  -2.2559 5.6184 10.0000
v  2.3985 5.8679 10.0000
v  2.2559 5.6184 10.0000
v  2.4310 3.0439 18.0455
v  2.4310 2.0697 17.6420
v  3.1199 2.3550 17.6420
v  3.4052 3.0439 17.6420
v  3.1199 3.7327 17.6420
v  2.4310 4.0181 17.6420
v  3.4052 2.0697 16.6678
v  2.4310 1.6661 16.6678
v  3.8087 3.0439 16.6678
v  3.4052 4.0181 16.6678
v  2.4310 4.4216 16.6678
v  3.1199 2.3550 15.6936
v  2.4310 2.0697 15.6936
v  3.4052 3.0439 15.6936
v  3.1199 3.7327 15.6936
v  2.4310 4.0181 15.6936
v  2.4310 3.0439 15.2900
v  2.4310 -2.9922 18.0455
v  2.4310 -3.9664 17.6420
v  3.1199 -3.6811 17.6420
v  3.4052 -2.9922 17.6420
v  3.1199 -2.3033 17.6420
v  2.4310 -2.0180 17.6420
v  3.4052 -3.9664 16.6678
v  2.4310 -4.3699 16.6678
v  3.8087 -2.9922 16.6678
v  3.4052 -2.0180 16.6678
v  2.4310 -1.6145 16.6678
v  3.1199 -3.6811 15.6936
v  2.4310 -3.9664 15.6936
v  3.4052 -2.9922 15.6936
v  3.1199 -2.3033 15.6936
v  2.4310 -2.0180 15.6936
v  2.4310 -2.9922 15.2900
v  2.4310 -0.0580 13.4800
v  2.4310 -3.5854 13.2233
v  3.1199 -2.5522 13.2233
v  3.4052 -0.0580 13.2233
v  3.1199 2.4362 13.2233
v  2.4310 3.4693 13.2233
v  3.4052 -3.5854 12.6037
v  2.4310 -5.0464 12.6037
v  3.8087 -0.0580 12.6037
v  3.4052 3.4693 12.6037
v  2.4310 4.9304 12.6037
v  3.1199 -2.5522 11.9841
v  2.4310 -3.5854 11.9841
v  3.4052 -0.0580 11.9841
v  3.1199 2.4362 11.9841
v  2.4310 3.4693 11.9841
v  2.4310 -0.0580 11.7275
# 93 vertices

vn 0.0000 0.0000 -1.0000
vn 0.0000 0.0000 1.0000
vn 0.0000 -1.0000 0.0000
vn 1.0000 0.0000 0.0000
vn 0.0000 1.0000 0.0000
vn -1.0000 0.0000 0.0000
vn -0.3563 -0.8730 0.3331
vn 0.3562 -0.8730 0.3331
vn -0.4004 0.8364 0.3744
vn 0.4004 0.8364 0.3744
vn 0.0000 -0.9343 0.3565
vn 0.7304 0.0000 0.6830
vn 0.0000 0.9127 0.4086
vn -0.7305 0.0000 0.6830
vn 0.3778 -0.9259 0.0000
vn -0.3779 -0.9259 0.0000
vn 0.4318 0.9020 0.0000
vn -0.4318 0.9020 0.0000
vn 0.1187 0.0000 0.9929
vn 0.1456 -0.7219 0.6765
vn 0.3172 -0.5969 0.7369
vn 0.5988 -0.0000 0.8009
vn 0.3172 0.5969 0.7369
vn 0.1456 0.7219 0.6765
vn 0.5555 -0.8315 0.0000
vn 0.1976 -0.9803 -0.0000
vn 1.0000 -0.0000 0.0000
vn 0.5555 0.8315 -0.0000
vn 0.1976 0.9803 0.0000
vn 0.3172 -0.5969 -0.7369
vn 0.1456 -0.7219 -0.6765
vn 0.5988 -0.0000 -0.8009
vn 0.3172 0.5969 -0.7369
vn 0.1456 0.7219 -0.6765
vn 0.1187 0.0000 -0.9929
vn 0.5555 0.8315 0.0000
vn 0.1029 -0.0000 0.9947
vn 0.2100 -0.2877 0.9344
vn 0.3259 -0.1704 0.9299
vn 0.4064 -0.0000 0.9137
vn 0.3259 0.1704 0.9299
vn 0.2100 0.2877 0.9344
vn 0.7918 -0.6108 0.0000
vn 0.5896 -0.8077 -0.0000
vn 0.7918 0.6108 0.0000
vn 0.5896 0.8077 0.0000
vn 0.3259 -0.1704 -0.9299
vn 0.2100 -0.2877 -0.9344
vn 0.4064 0.0000 -0.9137
vn 0.3259 0.1704 -0.9299
vn 0.2100 0.2877 -0.9344
vn 0.1029 -0.0000 -0.9947
# 52 vertex normals

vt 0.7986 0.8810 0.0000
vt 0.7986 0.7511 0.0000
vt 0.9419 0.7511 0.0000
vt 0.9419 0.8810 0.0000
vt 0.0549 0.1630 0.0000
vt 0.0549 0.0363 0.0000
vt 0.4124 0.0363 0.0000
vt 0.4124 0.1630 0.0000
vt 0.3306 0.7431 0.0000
vt 0.3306 0.5978 0.0000
vt 0.5803 0.5978 0.0000
vt 0.5803 0.7431 0.0000
vt 0.1611 0.6219 0.0000
vt 0.2782 0.6219 0.0000
vt 0.2782 0.8096 0.0000
vt 0.0439 0.6219 0.0000
vt 0.0439 0.8096 0.0000
vt 0.3306 0.5428 0.0000
vt 0.3306 0.3975 0.0000
vt 0.5803 0.3975 0.0000
vt 0.5803 0.5428 0.0000
vt 0.1611 0.3819 0.0000
vt 0.2782 0.3819 0.0000
vt 0.2782 0.5695 0.0000
vt 0.0439 0.3819 0.0000
vt 0.0439 0.5695 0.0000
vt 0.6316 0.8810 0.0000
vt 0.6316 0.7511 0.0000
vt 0.7749 0.7511 0.0000
vt 0.7749 0.8810 0.0000
vt 0.4027 0.3582 0.0000
vt 0.2284 0.3582 0.0000
vt 0.2594 0.3442 0.0000
vt 0.4027 0.3442 0.0000
vt 0.4118 0.3483 0.0000
vt 0.1974 0.3442 0.0000
vt 0.1974 0.2143 0.0000
vt 0.2284 0.2003 0.0000
vt 0.2594 0.2143 0.0000
vt 0.4027 0.2003 0.0000
vt 0.4118 0.2102 0.0000
vt 0.4027 0.2143 0.0000
vt 0.4338 0.2143 0.0000
vt 0.4338 0.3442 0.0000
vt 0.0541 0.3582 0.0000
vt 0.0450 0.3483 0.0000
vt 0.0541 0.3442 0.0000
vt 0.0231 0.3442 0.0000
vt 0.0231 0.2143 0.0000
vt 0.0450 0.2102 0.0000
vt 0.0541 0.2143 0.0000
vt 0.0541 0.2003 0.0000
vt 0.9774 0.0226 0.0000
vt 0.9774 0.1189 0.0000
vt 0.7689 0.1189 0.0000
vt 0.7689 0.0226 0.0000
vt 0.9090 0.5822 0.0000
vt 0.9090 0.7274 0.0000
vt 0.6316 0.7274 0.0000
vt 0.6316 0.5822 0.0000
vt 0.2316 0.8620 0.0000
vt 0.2316 0.9583 0.0000
vt 0.0231 0.9583 0.0000
vt 0.0231 0.8620 0.0000
vt 0.7452 0.0226 0.0000
vt 0.7452 0.1679 0.0000
vt 0.4679 0.1679 0.0000
vt 0.4679 0.0226 0.0000
vt 0.9669 0.2003 0.0000
vt 0.9669 0.2966 0.0000
vt 0.7584 0.2966 0.0000
vt 0.7584 0.2003 0.0000
vt 0.9090 0.3819 0.0000
vt 0.9090 0.5272 0.0000
vt 0.6316 0.5272 0.0000
vt 0.6316 0.3819 0.0000
vt 0.5391 0.7824 0.0000
vt 0.5391 0.8787 0.0000
vt 0.3306 0.8787 0.0000
vt 0.3306 0.7824 0.0000
vt 0.7348 0.2003 0.0000
vt 0.7348 0.3456 0.0000
vt 0.4574 0.3456 0.0000
vt 0.4574 0.2003 0.0000
vt 0.5581 0.7594 0.0000
vt 0.5542 0.7267 0.0000
vt 0.0163 0.8265 0.0000
vt 0.0179 0.7932 0.0000
vt 0.0163 0.5864 0.0000
vt 0.0179 0.5531 0.0000
vt 0.5581 0.5592 0.0000
vt 0.5542 0.5264 0.0000
vt 0.5624 0.7431 0.0000
vt 0.5624 0.5978 0.0000
vt 0.0439 0.7840 0.0000
vt 0.2782 0.7840 0.0000
vt 0.5624 0.5428 0.0000
vt 0.5624 0.3975 0.0000
vt 0.0439 0.5440 0.0000
vt 0.2782 0.5440 0.0000
vt 0.0083 0.6222 0.0000
vt 0.0113 0.8129 0.0000
vt 0.3109 0.5728 0.0000
vt 0.3139 0.3822 0.0000
vt 0.3351 0.5732 0.0000
vt 0.5808 0.5725 0.0000
vt 0.0083 0.3822 0.0000
vt 0.0113 0.5728 0.0000
vt 0.1464 0.8731 0.0000
# 109 texture coords

g Box001
f 1/1/1 2/2/1 3/3/1 
f 3/3/1 4/4/1 1/1/1 
f 5/5/2 6/6/2 7/7/2 
f 7/7/2 8/8/2 5/5/2 
f 9/9/3 10/10/3 11/11/3 
f 11/11/3 12/12/3 9/9/3 
f 13/13/4 14/14/4 15/15/4 
f 16/16/4 13/13/4 15/15/4 
f 16/16/4 15/15/4 17/17/4 
f 18/18/5 19/19/5 20/20/5 
f 20/20/5 21/21/5 18/18/5 
f 22/22/6 23/23/6 24/24/6 
f 25/25/6 22/22/6 24/24/6 
f 25/25/6 24/24/6 26/26/6 
f 27/27/1 28/28/1 29/29/1 
f 29/29/1 30/30/1 27/27/1 
f 23/31/1 22/32/1 31/33/1 
f 23/31/1 31/33/1 32/34/1 
f 33/35/1 23/31/1 32/34/1 
f 34/36/1 35/37/1 13/38/1 
f 22/32/1 34/36/1 13/38/1 
f 22/32/1 13/38/1 36/39/1 
f 22/32/1 36/39/1 31/33/1 
f 13/38/1 16/40/1 37/41/1 
f 13/38/1 37/41/1 38/42/1 
f 13/38/1 38/42/1 36/39/1 
f 10/43/1 9/44/1 33/35/1 
f 10/43/1 33/35/1 32/34/1 
f 10/43/1 32/34/1 38/42/1 
f 37/41/1 10/43/1 38/42/1 
f 22/32/1 25/45/1 39/46/1 
f 22/32/1 39/46/1 40/47/1 
f 22/32/1 40/47/1 34/36/1 
f 19/48/1 18/49/1 41/50/1 
f 19/48/1 41/50/1 42/51/1 
f 19/48/1 42/51/1 40/47/1 
f 39/46/1 19/48/1 40/47/1 
f 14/52/1 13/38/1 35/37/1 
f 14/52/1 35/37/1 42/51/1 
f 41/50/1 14/52/1 42/51/1 
f 32/53/6 31/54/6 1/55/6 
f 1/55/6 4/56/6 32/53/6 
f 31/57/5 36/58/5 2/59/5 
f 2/59/5 1/60/5 31/57/5 
f 36/61/4 38/62/4 3/63/4 
f 3/63/4 2/64/4 36/61/4 
f 38/65/3 32/66/3 4/67/3 
f 4/67/3 3/68/3 38/65/3 
f 34/69/6 40/70/6 27/71/6 
f 27/71/6 30/72/6 34/69/6 
f 40/73/5 42/74/5 28/75/5 
f 28/75/5 27/76/5 40/73/5 
f 42/77/4 35/78/4 29/79/4 
f 29/79/4 28/80/4 42/77/4 
f 35/81/3 34/82/3 30/83/3 
f 30/83/3 29/84/3 35/81/3 
f 9/44/2 23/31/2 33/35/2 
f 10/43/2 37/41/2 16/40/2 
f 19/48/1 39/46/1 25/45/1 
f 18/49/1 14/52/1 41/50/1 
f 12/12/7 5/85/7 24/86/7 
f 17/17/8 6/87/8 11/88/8 
f 26/26/9 8/89/9 20/90/9 
f 21/21/10 7/91/10 15/92/10 
f 5/93/11 12/12/11 11/11/11 
f 11/11/11 6/94/11 5/93/11 
f 6/95/12 17/17/12 15/15/12 
f 15/15/12 7/96/12 6/95/12 
f 7/97/13 21/21/13 20/20/13 
f 20/20/13 8/98/13 7/97/13 
f 8/99/14 26/26/14 24/24/14 
f 24/24/14 5/100/14 8/99/14 
f 10/101/15 16/16/15 17/17/15 
f 17/17/15 11/102/15 10/101/15 
f 12/103/16 24/24/16 23/23/16 
f 23/23/16 9/104/16 12/103/16 
f 14/105/17 18/18/17 21/21/17 
f 21/21/17 15/106/17 14/105/17 
f 19/107/18 25/25/18 26/26/18 
f 26/26/18 20/108/18 19/107/18 
f 43/109/19 44/109/20 45/109/21 
f 43/109/19 45/109/21 46/109/22 
f 43/109/19 46/109/22 47/109/23 
f 43/109/19 47/109/23 48/109/24 
f 49/109/25 45/109/21 44/109/20 
f 44/109/20 50/109/26 49/109/25 
f 51/109/27 46/109/22 45/109/21 
f 45/109/21 49/109/25 51/109/27 
f 52/109/28 47/109/23 46/109/22 
f 46/109/22 51/109/27 52/109/28 
f 53/109/29 48/109/24 47/109/23 
f 47/109/23 52/109/28 53/109/29 
f 54/109/30 49/109/25 50/109/26 
f 50/109/26 55/109/31 54/109/30 
f 56/109/32 51/109/27 49/109/25 
f 49/109/25 54/109/30 56/109/32 
f 57/109/33 52/109/28 51/109/27 
f 51/109/27 56/109/32 57/109/33 
f 58/109/34 53/109/29 52/109/28 
f 52/109/28 57/109/33 58/109/34 
f 59/109/35 54/109/30 55/109/31 
f 59/109/35 56/109/32 54/109/30 
f 59/109/35 57/109/33 56/109/32 
f 59/109/35 58/109/34 57/109/33 
f 60/109/19 61/109/20 62/109/21 
f 60/109/19 62/109/21 63/109/22 
f 60/109/19 63/109/22 64/109/23 
f 60/109/19 64/109/23 65/109/24 
f 66/109/25 62/109/21 61/109/20 
f 61/109/20 67/109/26 66/109/25 
f 68/109/27 63/109/22 62/109/21 
f 62/109/21 66/109/25 68/109/27 
f 69/109/36 64/109/23 63/109/22 
f 63/109/22 68/109/27 69/109/36 
f 70/109/29 65/109/24 64/109/23 
f 64/109/23 69/109/36 70/109/29 
f 71/109/30 66/109/25 67/109/26 
f 67/109/26 72/109/31 71/109/30 
f 73/109/32 68/109/27 66/109/25 
f 66/109/25 71/109/30 73/109/32 
f 74/109/33 69/109/36 68/109/27 
f 68/109/27 73/109/32 74/109/33 
f 75/109/34 70/109/29 69/109/36 
f 69/109/36 74/109/33 75/109/34 
f 76/109/35 71/109/30 72/109/31 
f 76/109/35 73/109/32 71/109/30 
f 76/109/35 74/109/33 73/109/32 
f 76/109/35 75/109/34 74/109/33 
f 77/109/37 78/109/38 79/109/39 
f 77/109/37 79/109/39 80/109/40 
f 77/109/37 80/109/40 81/109/41 
f 77/109/37 81/109/41 82/109/42 
f 83/109/43 79/109/39 78/109/38 
f 78/109/38 84/109/44 83/109/43 
f 85/109/27 80/109/40 79/109/39 
f 79/109/39 83/109/43 85/109/27 
f 86/109/45 81/109/41 80/109/40 
f 80/109/40 85/109/27 86/109/45 
f 87/109/46 82/109/42 81/109/41 
f 81/109/41 86/109/45 87/109/46 
f 88/109/47 83/109/43 84/109/44 
f 84/109/44 89/109/48 88/109/47 
f 90/109/49 85/109/27 83/109/43 
f 83/109/43 88/109/47 90/109/49 
f 91/109/50 86/109/45 85/109/27 
f 85/109/27 90/109/49 91/109/50 
f 92/109/51 87/109/46 86/109/45 
f 86/109/45 91/109/50 92/109/51 
f 93/109/52 88/109/47 89/109/48 
f 93/109/52 90/109/49 88/109/47 
f 93/109/52 91/109/50 90/109/49 
f 93/109/52 92/109/51 91/109/50 
# 152 faces

