# 3ds Max Wavefront OBJ Exporter v0.97b - (c)2007 guruware
# File Created: 29.05.2015 16:42:13

#
# object Plane043
#

v  -11.3995 12.4942 -1.4234
v  -11.3995 10.7934 -1.4234
v  -11.0439 10.7934 1.6063
v  -11.0439 12.4942 1.6063
v  -10.2636 10.7934 4.6359
v  -10.2636 12.4942 4.6359
v  -9.1299 10.7934 7.6656
v  -9.1299 12.4942 7.6656
v  -7.5723 10.7934 9.6080
v  -7.5723 12.4942 9.6080
v  -11.9602 11.1354 -1.4234
v  -10.6573 12.2287 -1.4234
v  -10.8858 12.5010 1.6063
v  -12.1888 11.4077 1.6063
v  -11.3874 13.0988 4.6359
v  -12.6904 12.0055 4.6359
v  -12.1162 13.9673 7.6656
v  -13.4191 12.8740 7.6656
v  -13.1174 15.1605 9.6080
v  -14.4203 14.0672 9.6080
v  -10.7373 10.9527 -1.4234
v  -11.9400 12.1554 -1.4234
v  -12.1914 11.9040 1.6063
v  -10.9887 10.7013 1.6063
v  -12.7432 11.3522 4.6359
v  -11.5405 10.1495 4.6359
v  -13.5449 10.5505 7.6656
v  -12.3422 9.3478 7.6656
v  -14.6463 9.4491 9.6080
v  -13.4436 8.2464 9.6080
v  10.5081 10.0981 -1.4234
v  10.5081 8.3972 -1.4234
v  10.8637 8.3972 1.6063
v  10.8637 10.0981 1.6063
v  11.6440 8.3972 4.6359
v  11.6440 10.0981 4.6359
v  12.7777 8.3972 7.6656
v  12.7777 10.0981 7.6656
v  14.3353 8.3972 9.6080
v  14.3353 10.0981 9.6080
v  9.9474 8.7392 -1.4234
v  11.2503 9.8325 -1.4234
v  11.0218 10.1049 1.6063
v  9.7188 9.0116 1.6063
v  10.5202 10.7027 4.6359
v  9.2173 9.6094 4.6359
v  9.7914 11.5711 7.6656
v  8.4885 10.4779 7.6656
v  8.7902 12.7643 9.6080
v  7.4873 11.6710 9.6080
v  11.1703 8.5565 -1.4234
v  9.9676 9.7592 -1.4234
v  9.7162 9.5078 1.6063
v  10.9189 8.3051 1.6063
v  9.1644 8.9560 4.6359
v  10.3671 7.7533 4.6359
v  8.3627 8.1543 7.6656
v  9.5654 6.9517 7.6656
v  7.2614 7.0530 9.6080
v  8.4640 5.8503 9.6080
v  -8.3302 -12.3518 -1.4234
v  -8.3302 -14.0526 -1.4234
v  -7.9747 -14.0526 1.6063
v  -7.9747 -12.3518 1.6063
v  -7.1944 -14.0526 4.6359
v  -7.1944 -12.3518 4.6359
v  -6.0606 -14.0526 7.6656
v  -6.0606 -12.3518 7.6656
v  -4.5030 -14.0526 9.6080
v  -4.5030 -12.3518 9.6080
v  -8.8910 -13.7106 -1.4234
v  -7.5881 -12.6173 -1.4234
v  -7.8166 -12.3450 1.6063
v  -9.1195 -13.4383 1.6063
v  -8.3182 -11.7472 4.6359
v  -9.6211 -12.8405 4.6359
v  -9.0469 -10.8787 7.6656
v  -10.3499 -11.9720 7.6656
v  -10.0481 -9.6855 9.6080
v  -11.3511 -10.7788 9.6080
v  -7.6681 -13.8933 -1.4234
v  -8.8708 -12.6907 -1.4234
v  -9.1222 -12.9421 1.6063
v  -7.9195 -14.1448 1.6063
v  -9.6739 -13.4938 4.6359
v  -8.4713 -14.6965 4.6359
v  -10.4756 -14.2955 7.6656
v  -9.2729 -15.4982 7.6656
v  -11.5770 -15.3969 9.6080
v  -10.3743 -16.5996 9.6080
v  -1.1308 0.5116 -1.4234
v  -1.1308 -1.1892 -1.4234
v  -0.7752 -1.1892 1.6063
v  -0.7752 0.5116 1.6063
v  0.0051 -1.1892 4.6359
v  0.0051 0.5116 4.6359
v  1.1388 -1.1892 7.6656
v  1.1388 0.5116 7.6656
v  2.6964 -1.1892 9.6080
v  2.6965 0.5116 9.6080
v  -1.6915 -0.8473 -1.4234
v  -0.3886 0.2460 -1.4234
v  -0.6171 0.5184 1.6063
v  -1.9200 -0.5749 1.6063
v  -1.1187 1.1162 4.6359
v  -2.4216 0.0229 4.6359
v  -1.8475 1.9847 7.6656
v  -3.1504 0.8914 7.6656
v  -2.8487 3.1779 9.6080
v  -4.1516 2.0846 9.6080
v  -0.4686 -1.0300 -1.4234
v  -1.6713 0.1727 -1.4234
v  -1.9227 -0.0787 1.6063
v  -0.7200 -1.2814 1.6063
v  -2.4745 -0.6305 4.6359
v  -1.2718 -1.8332 4.6359
v  -3.2761 -1.4321 7.6656
v  -2.0735 -2.6348 7.6656
v  -4.3775 -2.5335 9.6080
v  -3.1748 -3.7362 9.6080
v  13.4197 -13.5280 -1.4234
v  13.4197 -15.2288 -1.4234
v  13.7752 -15.2288 1.6063
v  13.7752 -13.5280 1.6063
v  14.5555 -15.2288 4.6359
v  14.5555 -13.5280 4.6359
v  15.6893 -15.2288 7.6656
v  15.6893 -13.5280 7.6656
v  17.2469 -15.2288 9.6080
v  17.2469 -13.5280 9.6080
v  12.8589 -14.8868 -1.4234
v  14.1619 -13.7935 -1.4234
v  13.9333 -13.5212 1.6063
v  12.6304 -14.6145 1.6063
v  13.4317 -12.9234 4.6359
v  12.1288 -14.0167 4.6359
v  12.7030 -12.0549 7.6656
v  11.4001 -13.1482 7.6656
v  11.7018 -10.8617 9.6080
v  10.3988 -11.9550 9.6080
v  14.0819 -15.0695 -1.4234
v  12.8792 -13.8669 -1.4234
v  12.6278 -14.1183 1.6063
v  13.8304 -15.3209 1.6063
v  12.0760 -14.6700 4.6359
v  13.2787 -15.8727 4.6359
v  11.2743 -15.4717 7.6656
v  12.4770 -16.6744 7.6656
v  10.1729 -16.5731 9.6080
v  11.3756 -17.7758 9.6080
# 150 vertices

vn -0.9932 0.0000 0.1166
vn -0.9830 0.0000 0.1834
vn -0.9538 0.0000 0.3004
vn -0.8693 -0.0000 0.4943
vn -0.7801 0.0000 0.6256
vn 0.6384 -0.7608 0.1166
vn 0.6319 -0.7530 0.1834
vn 0.6319 -0.7531 0.1834
vn 0.6131 -0.7307 0.3004
vn 0.5588 -0.6659 0.4943
vn 0.5015 -0.5976 0.6256
vn 0.7023 0.7023 0.1166
vn 0.6951 0.6951 0.1834
vn 0.6745 0.6745 0.3004
vn 0.6147 0.6147 0.4943
vn 0.5516 0.5516 0.6256
vn -0.9932 -0.0000 0.1166
vn -0.9830 -0.0000 0.1834
vn -0.8693 0.0000 0.4943
vn 0.9932 -0.0000 -0.1166
vn 0.9830 -0.0000 -0.1834
vn 0.9538 -0.0000 -0.3004
vn 0.8693 -0.0000 -0.4943
vn 0.7801 -0.0000 -0.6256
vn -0.6384 0.7608 -0.1166
vn -0.6319 0.7530 -0.1834
vn -0.6131 0.7307 -0.3004
vn -0.5588 0.6659 -0.4943
vn -0.5015 0.5976 -0.6256
vn -0.7023 -0.7023 -0.1166
vn -0.6951 -0.6951 -0.1834
vn -0.6745 -0.6745 -0.3004
vn -0.6147 -0.6147 -0.4943
vn -0.5516 -0.5516 -0.6256
vn 0.9932 0.0000 -0.1166
vn 0.9830 0.0000 -0.1834
# 36 vertex normals

vt 0.0380 0.0144 0.0000
vt 0.0967 0.0144 0.0000
vt 0.0967 0.1317 0.0000
vt 0.0380 0.1317 0.0000
vt 0.0967 0.2490 0.0000
vt 0.0380 0.2490 0.0000
vt 0.0967 0.3663 0.0000
vt 0.0380 0.3663 0.0000
vt 0.0967 0.4835 0.0000
vt 0.0380 0.4835 0.0000
# 10 texture coords

g Plane043
f 1/1/1 2/2/1 3/3/2 
f 3/3/2 4/4/2 1/1/1 
f 4/4/2 3/3/2 5/5/3 
f 5/5/3 6/6/3 4/4/2 
f 6/6/3 5/5/3 7/7/4 
f 7/7/4 8/8/4 6/6/3 
f 8/8/4 7/7/4 9/9/5 
f 9/9/5 10/10/5 8/8/4 
f 11/1/6 12/2/6 13/3/7 
f 13/3/7 14/4/8 11/1/6 
f 14/4/8 13/3/7 15/5/9 
f 15/5/9 16/6/9 14/4/8 
f 16/6/9 15/5/9 17/7/10 
f 17/7/10 18/8/10 16/6/9 
f 18/8/10 17/7/10 19/9/11 
f 19/9/11 20/10/11 18/8/10 
f 21/1/12 22/2/12 23/3/13 
f 23/3/13 24/4/13 21/1/12 
f 24/4/13 23/3/13 25/5/14 
f 25/5/14 26/6/14 24/4/13 
f 26/6/14 25/5/14 27/7/15 
f 27/7/15 28/8/15 26/6/14 
f 28/8/15 27/7/15 29/9/16 
f 29/9/16 30/10/16 28/8/15 
f 31/1/1 32/2/1 33/3/2 
f 33/3/2 34/4/2 31/1/1 
f 34/4/2 33/3/2 35/5/3 
f 35/5/3 36/6/3 34/4/2 
f 36/6/3 35/5/3 37/7/4 
f 37/7/4 38/8/4 36/6/3 
f 38/8/4 37/7/4 39/9/5 
f 39/9/5 40/10/5 38/8/4 
f 41/1/6 42/2/6 43/3/7 
f 43/3/7 44/4/7 41/1/6 
f 44/4/7 43/3/7 45/5/9 
f 45/5/9 46/6/9 44/4/7 
f 46/6/9 45/5/9 47/7/10 
f 47/7/10 48/8/10 46/6/9 
f 48/8/10 47/7/10 49/9/11 
f 49/9/11 50/10/11 48/8/10 
f 51/1/12 52/2/12 53/3/13 
f 53/3/13 54/4/13 51/1/12 
f 54/4/13 53/3/13 55/5/14 
f 55/5/14 56/6/14 54/4/13 
f 56/6/14 55/5/14 57/7/15 
f 57/7/15 58/8/15 56/6/14 
f 58/8/15 57/7/15 59/9/16 
f 59/9/16 60/10/16 58/8/15 
f 61/1/1 62/2/1 63/3/2 
f 63/3/2 64/4/2 61/1/1 
f 64/4/2 63/3/2 65/5/3 
f 65/5/3 66/6/3 64/4/2 
f 66/6/3 65/5/3 67/7/4 
f 67/7/4 68/8/4 66/6/3 
f 68/8/4 67/7/4 69/9/5 
f 69/9/5 70/10/5 68/8/4 
f 71/1/6 72/2/6 73/3/7 
f 73/3/7 74/4/7 71/1/6 
f 74/4/7 73/3/7 75/5/9 
f 75/5/9 76/6/9 74/4/7 
f 76/6/9 75/5/9 77/7/10 
f 77/7/10 78/8/10 76/6/9 
f 78/8/10 77/7/10 79/9/11 
f 79/9/11 80/10/11 78/8/10 
f 81/1/12 82/2/12 83/3/13 
f 83/3/13 84/4/13 81/1/12 
f 84/4/13 83/3/13 85/5/14 
f 85/5/14 86/6/14 84/4/13 
f 86/6/14 85/5/14 87/7/15 
f 87/7/15 88/8/15 86/6/14 
f 88/8/15 87/7/15 89/9/16 
f 89/9/16 90/10/16 88/8/15 
f 91/1/17 92/2/17 93/3/18 
f 93/3/18 94/4/2 91/1/17 
f 94/4/2 93/3/18 95/5/3 
f 95/5/3 96/6/3 94/4/2 
f 96/6/3 95/5/3 97/7/19 
f 97/7/19 98/8/19 96/6/3 
f 98/8/19 97/7/19 99/9/5 
f 99/9/5 100/10/5 98/8/19 
f 101/1/6 102/2/6 103/3/7 
f 103/3/7 104/4/7 101/1/6 
f 104/4/7 103/3/7 105/5/9 
f 105/5/9 106/6/9 104/4/7 
f 106/6/9 105/5/9 107/7/10 
f 107/7/10 108/8/10 106/6/9 
f 108/8/10 107/7/10 109/9/11 
f 109/9/11 110/10/11 108/8/10 
f 111/1/12 112/2/12 113/3/13 
f 113/3/13 114/4/13 111/1/12 
f 114/4/13 113/3/13 115/5/14 
f 115/5/14 116/6/14 114/4/13 
f 116/6/14 115/5/14 117/7/15 
f 117/7/15 118/8/15 116/6/14 
f 118/8/15 117/7/15 119/9/16 
f 119/9/16 120/10/16 118/8/15 
f 121/1/17 122/2/17 123/3/18 
f 123/3/18 124/4/18 121/1/17 
f 124/4/18 123/3/18 125/5/3 
f 125/5/3 126/6/3 124/4/18 
f 126/6/3 125/5/3 127/7/4 
f 127/7/4 128/8/19 126/6/3 
f 128/8/19 127/7/4 129/9/5 
f 129/9/5 130/10/5 128/8/19 
f 131/1/6 132/2/6 133/3/7 
f 133/3/7 134/4/7 131/1/6 
f 134/4/7 133/3/7 135/5/9 
f 135/5/9 136/6/9 134/4/7 
f 136/6/9 135/5/9 137/7/10 
f 137/7/10 138/8/10 136/6/9 
f 138/8/10 137/7/10 139/9/11 
f 139/9/11 140/10/11 138/8/10 
f 141/1/12 142/2/12 143/3/13 
f 143/3/13 144/4/13 141/1/12 
f 144/4/13 143/3/13 145/5/14 
f 145/5/14 146/6/14 144/4/13 
f 146/6/14 145/5/14 147/7/15 
f 147/7/15 148/8/15 146/6/14 
f 148/8/15 147/7/15 149/9/16 
f 149/9/16 150/10/16 148/8/15 
f 1/1/20 4/4/21 3/3/21 
f 3/3/21 2/2/20 1/1/20 
f 4/4/21 6/6/22 5/5/22 
f 5/5/22 3/3/21 4/4/21 
f 6/6/22 8/8/23 7/7/23 
f 7/7/23 5/5/22 6/6/22 
f 8/8/23 10/10/24 9/9/24 
f 9/9/24 7/7/23 8/8/23 
f 11/1/25 14/4/26 13/3/26 
f 13/3/26 12/2/25 11/1/25 
f 14/4/26 16/6/27 15/5/27 
f 15/5/27 13/3/26 14/4/26 
f 16/6/27 18/8/28 17/7/28 
f 17/7/28 15/5/27 16/6/27 
f 18/8/28 20/10/29 19/9/29 
f 19/9/29 17/7/28 18/8/28 
f 21/1/30 24/4/31 23/3/31 
f 23/3/31 22/2/30 21/1/30 
f 24/4/31 26/6/32 25/5/32 
f 25/5/32 23/3/31 24/4/31 
f 26/6/32 28/8/33 27/7/33 
f 27/7/33 25/5/32 26/6/32 
f 28/8/33 30/10/34 29/9/34 
f 29/9/34 27/7/33 28/8/33 
f 31/1/20 34/4/21 33/3/21 
f 33/3/21 32/2/20 31/1/20 
f 34/4/21 36/6/22 35/5/22 
f 35/5/22 33/3/21 34/4/21 
f 36/6/22 38/8/23 37/7/23 
f 37/7/23 35/5/22 36/6/22 
f 38/8/23 40/10/24 39/9/24 
f 39/9/24 37/7/23 38/8/23 
f 41/1/25 44/4/26 43/3/26 
f 43/3/26 42/2/25 41/1/25 
f 44/4/26 46/6/27 45/5/27 
f 45/5/27 43/3/26 44/4/26 
f 46/6/27 48/8/28 47/7/28 
f 47/7/28 45/5/27 46/6/27 
f 48/8/28 50/10/29 49/9/29 
f 49/9/29 47/7/28 48/8/28 
f 51/1/30 54/4/31 53/3/31 
f 53/3/31 52/2/30 51/1/30 
f 54/4/31 56/6/32 55/5/32 
f 55/5/32 53/3/31 54/4/31 
f 56/6/32 58/8/33 57/7/33 
f 57/7/33 55/5/32 56/6/32 
f 58/8/33 60/10/34 59/9/34 
f 59/9/34 57/7/33 58/8/33 
f 61/1/20 64/4/21 63/3/21 
f 63/3/21 62/2/20 61/1/20 
f 64/4/21 66/6/22 65/5/22 
f 65/5/22 63/3/21 64/4/21 
f 66/6/22 68/8/23 67/7/23 
f 67/7/23 65/5/22 66/6/22 
f 68/8/23 70/10/24 69/9/24 
f 69/9/24 67/7/23 68/8/23 
f 71/1/25 74/4/26 73/3/26 
f 73/3/26 72/2/25 71/1/25 
f 74/4/26 76/6/27 75/5/27 
f 75/5/27 73/3/26 74/4/26 
f 76/6/27 78/8/28 77/7/28 
f 77/7/28 75/5/27 76/6/27 
f 78/8/28 80/10/29 79/9/29 
f 79/9/29 77/7/28 78/8/28 
f 81/1/30 84/4/31 83/3/31 
f 83/3/31 82/2/30 81/1/30 
f 84/4/31 86/6/32 85/5/32 
f 85/5/32 83/3/31 84/4/31 
f 86/6/32 88/8/33 87/7/33 
f 87/7/33 85/5/32 86/6/32 
f 88/8/33 90/10/34 89/9/34 
f 89/9/34 87/7/33 88/8/33 
f 91/1/35 94/4/21 93/3/36 
f 93/3/36 92/2/35 91/1/35 
f 94/4/21 96/6/22 95/5/22 
f 95/5/22 93/3/36 94/4/21 
f 96/6/22 98/8/23 97/7/23 
f 97/7/23 95/5/22 96/6/22 
f 98/8/23 100/10/24 99/9/24 
f 99/9/24 97/7/23 98/8/23 
f 101/1/25 104/4/26 103/3/26 
f 103/3/26 102/2/25 101/1/25 
f 104/4/26 106/6/27 105/5/27 
f 105/5/27 103/3/26 104/4/26 
f 106/6/27 108/8/28 107/7/28 
f 107/7/28 105/5/27 106/6/27 
f 108/8/28 110/10/29 109/9/29 
f 109/9/29 107/7/28 108/8/28 
f 111/1/30 114/4/31 113/3/31 
f 113/3/31 112/2/30 111/1/30 
f 114/4/31 116/6/32 115/5/32 
f 115/5/32 113/3/31 114/4/31 
f 116/6/32 118/8/33 117/7/33 
f 117/7/33 115/5/32 116/6/32 
f 118/8/33 120/10/34 119/9/34 
f 119/9/34 117/7/33 118/8/33 
f 121/1/35 124/4/21 123/3/21 
f 123/3/21 122/2/35 121/1/35 
f 124/4/21 126/6/22 125/5/22 
f 125/5/22 123/3/21 124/4/21 
f 126/6/22 128/8/23 127/7/23 
f 127/7/23 125/5/22 126/6/22 
f 128/8/23 130/10/24 129/9/24 
f 129/9/24 127/7/23 128/8/23 
f 131/1/25 134/4/26 133/3/26 
f 133/3/26 132/2/25 131/1/25 
f 134/4/26 136/6/27 135/5/27 
f 135/5/27 133/3/26 134/4/26 
f 136/6/27 138/8/28 137/7/28 
f 137/7/28 135/5/27 136/6/27 
f 138/8/28 140/10/29 139/9/29 
f 139/9/29 137/7/28 138/8/28 
f 141/1/30 144/4/31 143/3/31 
f 143/3/31 142/2/30 141/1/30 
f 144/4/31 146/6/32 145/5/32 
f 145/5/32 143/3/31 144/4/31 
f 146/6/32 148/8/33 147/7/33 
f 147/7/33 145/5/32 146/6/32 
f 148/8/33 150/10/34 149/9/34 
f 149/9/34 147/7/33 148/8/33 
# 240 faces

