# 3ds Max Wavefront OBJ Exporter v0.97b - (c)2007 guruware
# File Created: 20.05.2015 18:56:53

#
# object Plane027
#

v  -3.5714 0.2468 -3.0335
v  3.5714 0.3129 -2.0006
v  3.5714 7.3562 -3.2460
v  -3.5714 7.5432 -2.5281
v  -3.5714 25.0000 0.0000
v  -3.5714 20.1462 1.0178
v  3.5714 19.6671 1.0178
v  3.5714 25.0000 0.0000
v  -3.5714 16.4938 -2.3328
v  3.5714 16.2445 -2.3328
v  -25.0000 -0.0000 -2.3328
v  -17.8571 -0.9548 -1.7508
v  -17.8571 6.9897 -3.2460
v  -25.0000 8.1932 -2.3328
v  -10.7143 -0.4506 -3.0335
v  -10.7143 7.5749 -2.5281
v  -25.0000 25.0000 0.0000
v  -25.0000 19.3087 0.0000
v  -17.8571 18.5893 0.6921
v  -17.8571 25.0000 0.0000
v  -10.7143 19.3088 0.3768
v  -10.7143 25.0000 0.0000
v  25.0000 19.3088 0.0000
v  25.0000 25.0000 0.0000
v  17.8571 25.0000 0.0000
v  17.8571 19.0211 1.0178
v  10.7143 25.0000 0.0000
v  10.7143 18.7090 0.3768
v  -25.0000 17.3606 -2.3328
v  -17.8571 15.7559 -2.3328
v  -10.7143 16.3411 -2.3328
v  25.0000 17.3606 -2.3328
v  17.8571 15.8675 -2.3328
v  10.7143 14.7858 -2.3328
v  25.0000 8.1932 -2.3328
v  17.8571 7.0734 -3.2460
v  25.0000 0.0000 -2.3328
v  17.8571 -1.6668 -2.3328
v  10.7143 6.2622 -3.2460
v  10.7143 -1.6668 -2.0006
v  -3.5714 -7.5432 -2.5281
v  3.5714 -7.3562 -3.2460
v  -3.5714 -25.0000 0.0000
v  3.5714 -25.0000 0.0000
v  3.5714 -19.4350 1.0178
v  -3.5714 -18.7250 1.0178
v  3.5714 -16.0123 -2.3328
v  -3.5714 -15.0727 -2.3328
v  -25.0000 -8.1932 -2.3328
v  -17.8571 -9.1247 -3.2460
v  -10.7143 -7.5566 -2.5281
v  -25.0000 -25.0000 0.0000
v  -17.8571 -25.0000 0.0000
v  -17.8571 -19.8886 0.6921
v  -25.0000 -19.3088 0.0000
v  -10.7143 -25.0000 0.0000
v  -10.7143 -19.8200 0.3768
v  25.0000 -19.3087 0.0000
v  17.8571 -20.9097 1.0178
v  17.8571 -25.0000 0.0000
v  25.0000 -25.0000 0.0000
v  10.7143 -20.4561 0.3768
v  10.7143 -25.0000 0.0000
v  -17.8571 -17.0552 -2.3328
v  -25.0000 -17.3606 -2.3328
v  -10.7143 -16.2671 -2.3328
v  25.0000 -17.3606 -2.3328
v  17.8571 -17.7560 -2.3328
v  10.7143 -16.5329 -2.3328
v  25.0000 -8.1932 -2.3328
v  17.8571 -9.9213 -3.2460
v  10.7143 -9.1100 -3.2460
# 72 vertices

vn -0.0124 -0.0020 0.9999
vn -0.0697 0.0184 0.9974
vn 0.0194 -0.0011 0.9998
vn 0.0380 -0.0570 0.9977
vn 0.0040 0.2016 0.9795
vn -0.0140 0.1758 0.9843
vn 0.0621 0.1904 0.9797
vn 0.0307 0.1583 0.9869
vn -0.0104 -0.6806 0.7326
vn -0.0028 -0.3781 0.9258
vn -0.0450 -0.4243 0.9044
vn -0.0670 -0.6764 0.7335
vn 0.0170 0.0093 0.9998
vn -0.0158 -0.0083 0.9998
vn -0.0056 0.0353 0.9994
vn 0.0910 -0.0323 0.9953
vn 0.0880 0.0047 0.9961
vn -0.0194 -0.0112 0.9997
vn -0.0516 0.0501 0.9974
vn -0.0964 -0.0000 0.9953
vn -0.0042 0.0845 0.9964
vn 0.0094 0.0985 0.9951
vn -0.0370 0.0763 0.9964
vn -0.0299 0.0930 0.9952
vn 0.0595 0.0747 0.9954
vn 0.0000 0.0000 1.0000
vn 0.0384 0.1321 0.9905
vn 0.0427 0.1422 0.9889
vn -0.0255 0.0840 0.9961
vn -0.0246 0.0856 0.9960
vn -0.1596 -0.7456 0.6469
vn -0.1050 -0.4675 0.8777
vn -0.0035 -0.4044 0.9146
vn -0.0317 -0.7207 0.6926
vn 0.0183 -0.3936 0.9191
vn 0.0545 -0.6736 0.7371
vn 0.0803 -0.4560 0.8863
vn 0.1213 -0.7619 0.6363
vn 0.0575 -0.7322 0.6786
vn 0.0297 -0.4037 0.9144
vn 0.0208 -0.5982 0.8011
vn 0.0060 -0.3359 0.9419
vn -0.0917 -0.0321 0.9953
vn -0.0460 -0.0141 0.9988
vn -0.0594 0.0083 0.9982
vn 0.0115 -0.0111 0.9999
vn 0.0123 0.0303 0.9995
vn 0.0187 -0.0188 0.9996
vn 0.0379 0.0559 0.9977
vn 0.0127 -0.0072 0.9999
vn -0.0046 -0.1643 0.9864
vn 0.0200 -0.1624 0.9865
vn 0.0247 -0.1749 0.9843
vn -0.0235 -0.1430 0.9894
vn -0.0425 0.6799 0.7321
vn 0.0798 0.6738 0.7346
vn 0.0488 0.4187 0.9068
vn -0.0134 0.3385 0.9409
vn 0.1031 0.0278 0.9943
vn 0.0117 -0.0094 0.9999
vn -0.0099 0.0087 0.9999
vn -0.0584 -0.0534 0.9969
vn 0.0135 -0.1219 0.9925
vn 0.0011 -0.1053 0.9944
vn -0.0211 -0.0928 0.9955
vn -0.0325 -0.0842 0.9959
vn 0.0657 -0.0825 0.9944
vn 0.0826 -0.2136 0.9734
vn 0.0555 -0.1905 0.9801
vn -0.0303 -0.1043 0.9941
vn -0.0314 -0.1097 0.9935
vn -0.0244 0.7553 0.6549
vn -0.0247 0.7084 0.7054
vn -0.0129 0.4434 0.8963
vn -0.0185 0.4330 0.9012
vn -0.0464 0.6190 0.7840
vn -0.0470 0.3601 0.9317
vn -0.0351 0.4013 0.9153
vn -0.0159 0.4358 0.8999
vn -0.0322 0.7329 0.6796
vn -0.0804 0.7651 0.6389
vn 0.0631 0.3599 0.9309
vn 0.1029 0.5974 0.7953
vn -0.1071 0.0255 0.9939
vn -0.0544 0.0284 0.9981
vn 0.0066 -0.0072 1.0000
# 86 vertex normals

vt 0.7525 0.2854 0.0000
vt 0.7532 0.2144 0.0000
vt 0.8231 0.2144 0.0000
vt 0.8250 0.2854 0.0000
vt 0.9984 0.2854 0.0000
vt 0.9502 0.2854 0.0000
vt 0.9454 0.2144 0.0000
vt 0.9984 0.2144 0.0000
vt 0.9139 0.2854 0.0000
vt 0.9114 0.2144 0.0000
vt 0.7501 0.4982 0.0000
vt 0.7406 0.4273 0.0000
vt 0.8195 0.4273 0.0000
vt 0.8315 0.4982 0.0000
vt 0.7456 0.3563 0.0000
vt 0.8253 0.3563 0.0000
vt 0.9984 0.4982 0.0000
vt 0.9419 0.4982 0.0000
vt 0.9347 0.4273 0.0000
vt 0.9984 0.4273 0.0000
vt 0.9419 0.3563 0.0000
vt 0.9984 0.3563 0.0000
vt 0.9419 0.0016 0.0000
vt 0.9984 0.0016 0.0000
vt 0.9984 0.0725 0.0000
vt 0.9390 0.0725 0.0000
vt 0.9984 0.1435 0.0000
vt 0.9359 0.1435 0.0000
vt 0.9225 0.4982 0.0000
vt 0.9066 0.4273 0.0000
vt 0.9124 0.3563 0.0000
vt 0.9225 0.0016 0.0000
vt 0.9077 0.0725 0.0000
vt 0.8969 0.1435 0.0000
vt 0.8315 0.0016 0.0000
vt 0.8203 0.0725 0.0000
vt 0.7501 0.0016 0.0000
vt 0.7335 0.0725 0.0000
vt 0.8123 0.1435 0.0000
vt 0.7335 0.1435 0.0000
vt 0.6752 0.2854 0.0000
vt 0.6770 0.2144 0.0000
vt 0.5018 0.2854 0.0000
vt 0.5018 0.2144 0.0000
vt 0.5636 0.2144 0.0000
vt 0.5706 0.2854 0.0000
vt 0.5975 0.2144 0.0000
vt 0.6069 0.2854 0.0000
vt 0.6687 0.4982 0.0000
vt 0.6594 0.4273 0.0000
vt 0.6750 0.3563 0.0000
vt 0.5018 0.4982 0.0000
vt 0.5018 0.4273 0.0000
vt 0.5525 0.4273 0.0000
vt 0.5583 0.4982 0.0000
vt 0.5018 0.3563 0.0000
vt 0.5597 0.3563 0.0000
vt 0.5583 0.0016 0.0000
vt 0.5424 0.0725 0.0000
vt 0.5018 0.0725 0.0000
vt 0.5018 0.0016 0.0000
vt 0.5469 0.1435 0.0000
vt 0.5018 0.1435 0.0000
vt 0.5807 0.4273 0.0000
vt 0.5776 0.4982 0.0000
vt 0.5950 0.3563 0.0000
vt 0.5776 0.0016 0.0000
vt 0.5737 0.0725 0.0000
vt 0.5859 0.1435 0.0000
vt 0.6687 0.0016 0.0000
vt 0.6515 0.0725 0.0000
vt 0.6596 0.1435 0.0000
# 72 texture coords

g Plane027
s 1
f 1/1/1 2/2/2 3/3/3 
f 3/3/3 4/4/4 1/1/1 
s 2
f 5/5/5 6/6/6 7/7/7 
f 7/7/7 8/8/8 5/5/5 
s 1
f 6/6/9 9/9/10 10/10/11 
f 10/10/11 7/7/12 6/6/9 
f 11/11/13 12/12/14 13/13/15 
f 13/13/15 14/14/16 11/11/13 
f 12/12/14 15/15/17 16/16/18 
f 16/16/18 13/13/15 12/12/14 
f 16/16/18 15/15/17 1/1/1 
f 1/1/1 4/4/4 16/16/18 
s 2
f 17/17/19 18/18/20 19/19/21 
f 19/19/21 20/20/22 17/17/19 
f 20/20/22 19/19/21 21/21/23 
f 21/21/23 22/22/24 20/20/22 
f 22/22/24 21/21/23 6/6/6 
f 6/6/6 5/5/5 22/22/24 
f 23/23/25 24/24/26 25/25/27 
f 25/25/27 26/26/28 23/23/25 
f 26/26/28 25/25/27 27/27/29 
f 27/27/29 28/28/30 26/26/28 
f 28/28/30 27/27/29 8/8/8 
f 8/8/8 7/7/7 28/28/30 
s 1
f 18/18/31 29/29/32 30/30/33 
f 30/30/33 19/19/34 18/18/31 
f 19/19/34 30/30/33 31/31/35 
f 31/31/35 21/21/36 19/19/34 
f 21/21/36 31/31/35 9/9/10 
f 9/9/10 6/6/9 21/21/36 
f 32/32/37 23/23/38 26/26/39 
f 26/26/39 33/33/40 32/32/37 
f 33/33/40 26/26/39 28/28/41 
f 28/28/41 34/34/42 33/33/40 
f 34/34/42 28/28/41 7/7/12 
f 7/7/12 10/10/11 34/34/42 
f 10/10/11 9/9/10 4/4/4 
f 4/4/4 3/3/3 10/10/11 
f 30/30/33 29/29/32 14/14/16 
f 14/14/16 13/13/15 30/30/33 
f 31/31/35 30/30/33 13/13/15 
f 13/13/15 16/16/18 31/31/35 
f 4/4/4 9/9/10 31/31/35 
f 31/31/35 16/16/18 4/4/4 
f 35/35/43 32/32/37 33/33/40 
f 33/33/40 36/36/44 35/35/43 
f 37/37/45 35/35/43 36/36/44 
f 36/36/44 38/38/46 37/37/45 
f 36/36/44 33/33/40 34/34/42 
f 34/34/42 39/39/47 36/36/44 
f 38/38/46 36/36/44 39/39/47 
f 39/39/47 40/40/48 38/38/46 
f 34/34/42 10/10/11 3/3/3 
f 3/3/3 39/39/47 34/34/42 
f 39/39/47 3/3/3 2/2/2 
f 2/2/2 40/40/48 39/39/47 
f 1/1/1 41/41/49 42/42/50 
f 42/42/50 2/2/2 1/1/1 
s 2
f 43/43/51 44/44/52 45/45/53 
f 45/45/53 46/46/54 43/43/51 
s 1
f 46/46/55 45/45/56 47/47/57 
f 47/47/57 48/48/58 46/46/55 
f 11/11/13 49/49/59 50/50/60 
f 50/50/60 12/12/14 11/11/13 
f 12/12/14 50/50/60 51/51/61 
f 51/51/61 15/15/17 12/12/14 
f 51/51/61 41/41/49 1/1/1 
f 1/1/1 15/15/17 51/51/61 
s 2
f 52/52/62 53/53/63 54/54/64 
f 54/54/64 55/55/20 52/52/62 
f 53/53/63 56/56/65 57/57/66 
f 57/57/66 54/54/64 53/53/63 
f 56/56/65 43/43/51 46/46/54 
f 46/46/54 57/57/66 56/56/65 
f 58/58/67 59/59/68 60/60/69 
f 60/60/69 61/61/26 58/58/67 
f 59/59/68 62/62/70 63/63/71 
f 63/63/71 60/60/69 59/59/68 
f 62/62/70 45/45/53 44/44/52 
f 44/44/52 63/63/71 62/62/70 
s 1
f 55/55/72 54/54/73 64/64/74 
f 64/64/74 65/65/75 55/55/72 
f 54/54/73 57/57/76 66/66/77 
f 66/66/77 64/64/74 54/54/73 
f 57/57/76 46/46/55 48/48/58 
f 48/48/58 66/66/77 57/57/76 
f 67/67/78 68/68/79 59/59/80 
f 59/59/80 58/58/81 67/67/78 
f 68/68/79 69/69/82 62/62/83 
f 62/62/83 59/59/80 68/68/79 
f 69/69/82 47/47/57 45/45/56 
f 45/45/56 62/62/83 69/69/82 
f 47/47/57 42/42/50 41/41/49 
f 41/41/49 48/48/58 47/47/57 
f 64/64/74 50/50/60 49/49/59 
f 49/49/59 65/65/75 64/64/74 
f 66/66/77 51/51/61 50/50/60 
f 50/50/60 64/64/74 66/66/77 
f 41/41/49 51/51/61 66/66/77 
f 66/66/77 48/48/58 41/41/49 
f 70/70/84 71/71/85 68/68/79 
f 68/68/79 67/67/78 70/70/84 
f 37/37/45 38/38/46 71/71/85 
f 71/71/85 70/70/84 37/37/45 
f 71/71/85 72/72/86 69/69/82 
f 69/69/82 68/68/79 71/71/85 
f 38/38/46 40/40/48 72/72/86 
f 72/72/86 71/71/85 38/38/46 
f 69/69/82 72/72/86 42/42/50 
f 42/42/50 47/47/57 69/69/82 
f 72/72/86 40/40/48 2/2/2 
f 2/2/2 42/42/50 72/72/86 
# 112 faces

